<mxfile host="65bd71144e">
    <diagram id="s4kN5XO568AZiswRdaFc" name="Page-1">
        <mxGraphModel dx="606" dy="470" grid="1" gridSize="10" guides="1" tooltips="1" connect="1" arrows="1" fold="1" page="1" pageScale="1" pageWidth="850" pageHeight="1100" math="0" shadow="0">
            <root>
                <mxCell id="0"/>
                <mxCell id="1" parent="0"/>
                <mxCell id="10" style="edgeStyle=none;html=1;" parent="1" source="3" target="6" edge="1">
                    <mxGeometry relative="1" as="geometry"/>
                </mxCell>
                <mxCell id="13" value="" style="rounded=1;whiteSpace=wrap;html=1;fillColor=none;dashed=1;strokeColor=#F0F0F0;strokeWidth=2;" parent="1" vertex="1">
                    <mxGeometry x="89" y="206" width="243" height="160" as="geometry"/>
                </mxCell>
                <mxCell id="3" value="" style="shape=image;verticalLabelPosition=bottom;verticalAlign=top;imageAspect=0;image=data:image/png,iVBORw0KGgoAAAANSUhEUgAAAKkAAAC0CAYAAADvnQxqAAAAAXNSR0IArs4c6QAAAARnQU1BAACxjwv8YQUAAAAJcEhZcwAADsMAAA7DAcdvqGQAADpVSURBVHhe7d0J2HVVWT7wo6YZKmIDlpSKmahZOAs44AAqSGqKKTIYKKPwSSCBBqmQyKCEgqjMYmpoGqKiSZoYKoKhUuJnTuWQOSBYBg7V/q/fA/dpf+f/fgPwnfOe92Xf17Wutfea9173ftZazxr2rbqG0YABc4xb32APGDC3GEg6YO4xkHTA3GMg6YC5x0DSAXOPJUNSSohJRcSgmLhlYK5IGiL2Cfk///M/o//+7/+u61vd6lZlw//+7//ecDVguWNu9KR9YiIjEoaUffcg1323AcsTcyFJQ8IQNZIT+oS99a1vPZDyFoi5kKQhJ4OQP/dzPzf6z//8z9E3vvGN0U9/+tPRz//8z4/ucY97jG53u9uVXx8DaZc/5kKSIlrIhoRXXnnlaJdddhmdeeaZdX3BBReMdtttt9HXvva1cR91Dr6tATPCokvSZI98mnOS9PDDDx/967/+6+iNb3zjaIMNNigCP+95z6vr0047raQrMvfJPWD5Yi5IimikI+KxkfSaa64Z3fGOd6wwt73tbUcf+chHisQf+9jH6j7FHki6/DE3o3sSFAkV50Mf+lAR9Zvf/OboqquuKj/YZ599RieddNJY6g6S9JaBRe+TIiWDbMgHj3nMY0ZbbbXV6Hvf+954pH+b29xm9PSnP72uhUfSAbcMLHpNRxr2+6S3v/3tR8cee+zoxBNPrGtuiGnEnziRrvFjcj1geWFu+qTsFIX01O/87ne/O9p2221HX/ziF0c/+9nPqo/6vve9b/SgBz2oCB1pipx99ZT0BiwfzIUkDUEjHUO+r371q6Nvfetb1dT/0i/90ui//uu/Ro973ONGv/7rvz66293uVqS9053uNLrLXe4yOvjgg2vUP2D5YW46dsiKjICwl1xyyej5z3/+6D/+4z9Gd77znYuA/O9+97uPPvjBD47OOuus0R3ucIeKp6vwiU98YvTjH/+44g9YZmiEWFQ06Vl2I1rZTVp2p556avdrv/ZrXSNl16Rq2Y2Mdb3BBht0v/zLv9w1KVpurVtQ9oEHHtg1ko7TG7B8cJuXN9zA10VBK0NJw4zi/+RP/qTUT9dee201/5p+tjBsUtO1Zv66664bu3/pS1+qtH7xF3+xJC6jj5q4/JjcMwOWBhZ94IQ0iKgY3/nOd0Zbbrnl6F/+5V/KL8p9MMrX5CPXFltsMTrllFNG55133uijH/3o6JOf/OToJz/5SRHTrNTDHvaw0X3uc5/Rb/7mb47ud7/7lUorAyskl5eB2SQG4s4pkHQx0UhaRnPfSNgdeuih4+adnea+Eayuuf/Wb/1Wd9VVV1W87373u92FF17Ybb755tX0e6TEd98ka3eve92r0r366qsrn5/97GfjfGMGzC8WfeDUCFKSjRRjb7311mUz/EhHUrD1UUe///u/P3rVq141an3S0Vve8paKr3knba2USlcg6bk3vUpLcPzxx5fUHbD0sOgk1dSn36k5/tGPflTuyIl4FpYY5T/5yU8ebbrppjXaf9rTnjY644wzRu9617uKjL/yK78y+vznP78K2UPypAU0An/xF38x+uEPf1h++UBiBswnZtonlRUSIUdf4jGkHvc99thj9Na3vrXc9EOpnPRR9Tm5ITQIT8L+wR/8QamivvKVr4we8YhHlPKfsh8hDzrooAqXj0B8fVF6VeNFknnjjTeu9Ejj9FnZypZXI14fk/cDpoxWETNDI0r1O9n6heC+EaRr0q3bf//9x/3KRoTqg6YvGrfYG264YbfDDjt0F1xwQfeDH/ygaySu/ibTmvjut3/7tytsI3LZ+qlNMo+v2Q984AO7f/7nf678lYetbNRgub722mvH6rG4DZgtZipJWwWvIp2uuOKKWtD8uc99rkbo3/72tysMSWYalJ1m3ywTCfmQhzykJKaReyPq6NOf/vTo4osvHh1wwAElWaV/zjnn1Ch/v/32q/n+SFKQXiPbWBpKe8899xw985nPLI0AKStfSBhp5pqd6wGzwcxVULLTpJqP1zRTO6UImmJ+CGVw1EbxRZyHPvSho3//938fnX/++bUYWr+U/3Of+9zRJptsMnrFK14xevOb31zNNwK+8IUvHP3N3/xNkdNyP6RKE272aqONNipymlb9hV/4hVJt6QsLv+uuu44e/OAHj373d393vJ5VfH7KxmYGzA4z75MyKnn33XevEXqkK+IYqSMhf/pS/dB/+7d/K5NispFGPOGQjuIfaelOEVvaiCy9e9/73kU64d7xjncUsR/96EdXWldffXWRHFGlR8peeOGFFf9e97pXfUSWB973vvcdE1aegySdLaZK0iQdQkHc/viP/3h0+umnl4TbZpttRne9611Hn/nMZ0Yf//jHKwx3UtF1JCFJBv0ic0cyhHz4wx8+etKTnlQDLiT/jd/4jfHI/sMf/vBo++23L+W+1f0IS8oedthhJVWVUVqXXnrp6AlPeEIRXz7Ijaw77bRTkdtCF8gzKZN4KeeA9Y+pkTSVxka2kEXlAimGIP/0T/9UTa3VTlRDEEKLk74pMrhnS1PXYPPNNx896lGPGj3+8Y8vCWqaVLqIpLkOpNEGSDWiR77Xv/71taKKtNSPBWVlrGFVLvlEurJ9CHS49LRtUDYOrywpr/sB6x9Tb+5VcKSOrBDmAx/4wOjP//zPi6CaZUhlI0efADFIaXkeYpoWZWxz/sIXvlAEFNdAzEDJtOiLX/ziVQjtGjHZCCc8E+IrI2m7995711Zq+fPzgflIEP+lL31pkdoHII/Elf6AKaJV4lTRKnmsGmqSrvvTP/3TUgFFNdTIUComhjubWyNG15rtrpGhO/roo7vLL7+8a4OnSo+6iZrJdOiXv/zlum4kK3VRI31dy4tNxZX8xaVq4g4pkzBNutYU6ste9rLu7W9/e3fQQQfV9KtyKo+yWpl19tlnd3vssUfXPrBKQ1oxA6aDqZM0FWgZ3XHHHVe6SmRU6SFlCIoMluJZdtf6hl0bMBWJkLL1IYuARx11VNcGM91FF13UtW7CmHwhIHBLvnFPOG5I+bnPfa579atf3T372c/uWj+1u8td7tKde+65Y72tfJH/4osvro+k9Xfrw7FMsA22uhNOOKHCJo8B08NU+6SMZrMRpObNn/jEJ46bcU2o6Uyja5vu4HWve13ZmtM3velNpRNtBK7wluJZ1Gz3aJPGoz/8wz+s6dJGkgojXdfJM2gEqi6AOfzvf//7o8suu2z0zne+s3Sr7cOoQRYtgkEWnauBUuJLS9rKLywtA+0DXaqZMN2GhBkwPUyNpCGPCnb9e7/3e6W7RM5f/dVfHR1zzDE1WkZUfTo6UFOcwlLENylXU6Tu6UiNuO0edbKJwU2IgTwGXvq2+qYex6SAvqrTT0ypGpAhqnAIaDQvnn7rU57ylMrrs5/9bBE3q/3lCyGs58jHAAmTcsg3fgPWM5B0GtC8gqZQX/K+971vTXk2YlY/8uMf/3j3ghe8oPqoTTp1Tcp12223XTW7+oHbbLNN14hTaWh2hTn++OO7zTbbrPvMZz7TNdJ1TTp3Bx98cLlpihtJxl0ItvtGuu6hD31o5aV5f//731/5N/JWGU2BNindPeYxj6l8uKVbAHkO9ww/3Yc08XEfMD1MjaR9IKlBh4GJARBSNAlaA5MMdNIX/NjHPtY95znP6bbccsvu9NNP//8I8Z3vfKfm63fccccipu8MGRnkdG9eX9+RW+sSFBHFzaCpTzz56n/uvPPO4zWq/fzAPSNs+qFJJ9cDpoepdaZa2mVaBZbaCfTlLLczV69/SGepnwea30aq8t93331rLp7KSB+UO8W7LoEmuhFq9O53v3vcBOsupNkVVn/VKShve9vbaiaKuov+NOVhUj7dDzbVUhT40hImSNmETfjANb8BU0R7yVMBKRNJ0/qINYK+613v2n3rW9+qZlfWzJOf/OTua1/7WqmPhH3JS14ylo6kIY0AN90EmgHubcAyvmY22mijavZPOumkrhGyugbyjkQEaffBj4S3CormgSRduXJlhePHlsaAxcdUSQqaWE1kGziV3pM65zWveU31Ge92t7tVX7WNrLsVK1Z0J598ci2f03fVdDNttF3NevqY7Db6r76re2E23njj6r/mo0ieuV4IiLjffvt1f/Znf1YfjmV/+rhJYyDp/GBqzb0ms6VfTSVjZVKr9FIzOWcUzB7x05RzNx2pK9AIUnGlkalSbu6N/KWjibdcz5y6bsD973//cm/kq3CaZfeNyJVWkGvu9u9bM2AGzGosKi7uiTdgTtAqbapoFV5SzQDpiU98Ykk+EpUUJCHZJCcJqTj8ueU697kmhQ1wrrzyytpYp6mOtHQdI08gMZUhICHBCF834R/+4R+60047rcpkNklYYdLkD1h8TE2SRhqSSI1ctdTNsjeSk/KcO4nlXliGGwjPnaQ88sgja7XUUUcdVYtIDMIs67POlE6zkbHCi0+6ZhBFkvbTDJQJLGgR7u/+7u/Ga1pJUkiYybgDFgdTI6kKTiWrdOaRj3zkeJYmREjT6h5pNL/2HSGYfUtNclYX4EUvelEp9zXtiCm8ph1RKelBOl//+teL4NJlkq6wyVfaFPq6Eg7ntdnPwmoTAim3OMIOWHxMjaR9hKz3vOc9awExAsSNnX6k/uZf/uVflvR0jdCITYLaVGdbcmuea7WSeJHCremuFVXXXXddqafMMoWcwkViAzdxbEVpg6ZaKG1qdrvtthv94Ac/qHgp20DSOUGriKmiEaL6eYx+ntVGjSjVBzUqd60YjRhl7nSnO5X7gx/84O5pT3va2N0sFHf9WAdBSE/a0tSvbM1/d+aZZ45VWRalsPVX2ZA4+qsU+O75M29+85u7Jq0rvYRlBiw+ZipJSTOb6CjYKfb1AfUdoZWlbE234x0p+//2b/+24jL6omnWNc/cGuEqni6CBSK0A3FLn7SPpGVunz8J7p50ZZyHqishnvsB84GpLnruJ+26SaYihqZV82wWqE+IEC/ESXw7RQ26DKT0Vx0OgfD6lPqRBj7guMjf+Z3fqZX64konNrgOGX0o4F65rIyy54qtm5GypJswYPEwVXERcoBr0gsBNttss5ru7BMJ9EMNkKLzRBLGyN7Kp/3333/0rGc9q9LhbxsIP6eXGKUjveV9SQ8BpZ88Uh7xV65cWQSUjnv9UautrJbiBklnwOJipm2aSmdskgsQB1m4a/4tt3OkDjWTZXy2czgVjwRGHrZ1n3/1V39VG+RsqjOg4v7Upz61NvKRsJGQ0o10ZrjpalCJcY/EJo11MZQhZOY3YPEx9VpIhUOIQpJabAx+e2P/EEIgq3WjiEYqOqQMAfU3IxXpWO0MpTri55c5Zp2cC2Xvvd2iCI6MIVk+AoYbcupCCBNprS9Kuks/YfplH7B4mImoCDlB5dtAZ2U7kFzUTPyRRrOtudcE05Pa5iwOglkVZQrTtmNKewOmP/qjP6qF0FY9OYmkT06QrrjsEC8mzb1r3Qhpau7dJ+6AxceitGcGPw94wAOKPA4Wy7I7/VV+Tr4Dek/NPYmpP2oLipE5Xel73vOeGu1bTU/i6hpI05I7TT+E3LEjIfukFd69naj6xJp8fvEfsPiYKUlVPEKQYPqZGUUjD9t6zrPPPrtIFqJR1NvThJjOdnLCiG0kjC0iZqP42SoSUklPHn2SSS8SljqLn3tE9zEoF9jDBANB5wczJamKT/9Q3xNJNeuaf7rRPpFINX4IZaEz9RIy6jMaMJGuNAE28dm4J22qJf7payYvNkJzt8h6r732Gn8E+r72N5nF0vXoax0GzAdmStIQEPRJNdEGUUixYsWK8QIRZCLdENRpd372AObpHcljwcmBBx442nHHHSu8nzwgKunqlD7S2Ag/ZJOefMDpfQivi4GomnthfTCmSu1KzdqAgajzgZmSVMWDyicpH/jABxZxkY6e0pE5JCF/7mwkJCHBdhAn6LnXNxXPKJ/aCuEcm3PEEUeU3vTZz372KqooZHRN+W8FlC0mUepbG2CCgBtJSoKTvgPmAzMlaYCsjNPunGdvRZKBC+U8MoHmWphzzz23tjrTjVJVkXJUTBdddFFJTIOmnHhHBUWZLy1dA6N95Ec6hEdkS/ykjbikJzJaYGKhCTUW8iM3/5RhwOJipiRNpSMM4jgAjHRzyAO1E0kY6SoMWL1vxO3cUP1Y6iqb9UhYZHS0I42A0b70HUpGwmq6uTlgDOQrT0vydDOE9Rc9IFFJZH1VHwE1FCBwyjFg8TDzPmmIqr+JSObjNdcOjkAaBOxLMH5IiqCkLAJaV6ofSjIKRwJzsyCF4p+iXr+TNDQgkhfCudfNOPTQQ+veNKj4iGkSQH+XVKafTTdhwBygVdLM0Cr9hqvrN+i5t7uzEaZ7ylOeUgc+5Kz7JsHKNIlZWzvucY971EY9m+aa9KxNfP7PtMsuu4zPl2Kcu9+a7dpRyt92k0b6sZGvffiW+zkggputLa17UMv0WteiDqxofePyG7D4mClJIeRkkOAf//Efa6+RdaS2IjvVDjlb0zze37T77rvXSXYIa7dpk7pFWqeO2CqNnE3Kdk0qV5gmRbu///u/rx+R2bYcgsYoQ5OeZeeejaQnnnhi17oe9cEMmA/MnKSAECEpMjjeEdGcXOJIRUfjhKTcQ1bXtkCL49jH1qwXORH1mc98ZpELeT/5yU+ukkdM8o5f3/973/te94UvfKFr/djK/xvf+MbYf8DiYuaj+5ZnmVzTfZpJamSoefkm1UY77LBD3TONKOOwjBkhh+VaM2r2yXYUs1JG/O9///urL0pn2kg97gMHyRf4CZN0LVoxypee/i41Fn9mwOJiUVRQ/YpHEDpNAyhTlJTsTrozekckBozMEQ6JW9+0RuD2MpkUENbgh7v0rLASTvjk1SfkQsTj5oNRDpqG1l1YheADFg8zJ2mfNIA0Ru277bZb6S2dH4os1ErChCgkqnBG9PSZpkpJXCN605l0qCSgtaj0nEgaQiYvQPqQtQ/38uDvDyX+AD2QdD6waJI0Js2uGR9ToZpxO0b9SaT1QcekYiMeN6or06IWPj/jGc8oveepp55aTbU5eieTILx4JCwgYIg4SdrcS1sY5LcIOn9CmTQDZotFIWmAHJFW/uiBHJpZazutaqKzRArhIuVc64Min31PfoSrL+p/pJbq8TdrJF1TnHSeIRYpbEFJiMpArnOvf2uvlFmogZSLj0UlKSAeIIh98FYkkWiabkeI64siCjfEQzBEe8Mb3lDx+JOsCGvGClFJQemZlzcjJY743HQZQrzJ5lw407TiW5BiwbW8hF9dnAHTx6KTNJXPNmCx9M6OTf1CbqQfcrlGNAYZNenm/jXzpCXJag2ABdNG5iQy29I8fVjdA+FI6MzNS1f6KYMPxuKTww8/vMguLk1CkDgDZoxWQYsKCnRoEqpmgug/mwTs3ve+99WBD4rYiFE200haekz6UfeNWDUR8MpXvnJ8SFlr5sczVfvss08dRS7c3e9+964NtOosUvk20o31pIz7Ngir48ul8YQnPKEM94QdMHssuiTtN+NURxaAkJDm8s2n8yfh2FFD2etEAlI9kWwGXC972cvqB2BOdZbWCSecUNLVXnoDMSAZrRcVx4IV6UgvmgCQpiWB+r2W9ZHIVlwpg7AJN2CGKKouIkinvpRybUqTNH3Tm95UZ+2TpCQhKUqCOnu/DapKksaPHePM/Mc97nE1a8Uknvn+RzziEd15551X9y9/+csr30hVdiNsSdMttthinK71AcKR1JH8A2aHRZekjQRlWlnGgxLL8xzHoy/52te+tgZAwvAnQf1rSZ+1H5ekY0hCvxQ3MUA15Z5kFc7qJ2FoBMSh/LevSrr8gcR2rV9qm4r71vWoFf3iuAfXDKTcA6aE9qIXHaQUSRaJSlrpOzpjvzXX3ZFHHln9SxKxEahsx5Rb/eTvdPqoJKbrU045pRaqkHqf/vSna5UVqZi4pGMkZCNx981vfnMsQRnXymF9gF/xWMQi7zbarwUrKWvKHTNgelh0SRqQXgyQVnaT+kGZhcgkYxv8VJ8USEb9yVb+mmGiXyUh/Z5ceIuh3fttuLTsfXIP7vV7rU/Vf/Xjs7hLTzjpUz1Zb0p7QL0lDXrToBFzXF62uAOmBEydB/SlEmnG9v9P0tTqKBLPH0hIwHve8571MwjXpKKVT0bz/v1kJVMk4/e///36d6j+K0nqcUlFa1f9dYREFI4dzYC4iZ9rywk//OEPdw960IO6D37wgxVWnJgB08XckLSPVDybaskCZouX/YjMgIfK6bGPfWyRDkljENpaU8RCckR81KMeVfGROKTWNdhqq63KPx/FJDEhBL7uuuv/+Oxveo9//OPHBOce8B8wHdymjXBfXiJ1jtDKNW5CNc32H1kdZS+UjXWXX355qZP4MwFVlBkjC1RMa5q1os6yvO+LX/ziDaGuhz+e2FrSyFXhzPUbZMmXWyNzhcu1SQD/2KfWotJyToBp20bWVZr9Aesfc0nSAAHoTp35ZGco3aW/N9vz1JrgG0L9X38WoSxUMWJHOsv47CZFZDNUffLr30rHGtZzzjln9KlPfap+yLvhhhuWX5OmZQuPmDQN0m8SvDQOPhabAkPm2AOmgFZhc4dGhrLT7GpWzRzpVzoy3P1Tn/rUar4Zj5E+p3szVXSh+o7SEN5PxTTz/DX5mn924nLXp7XdpN/nTFnMQP3whz+s487NiukT0x7YCwXCMeIMWL+YS5ICcqnwEA1JbB2hNvrQhz5U/cOQC9lCVjaj77r11lt35557bqXx7Rt+HYmoVFL77rtv5896wiBsSEvBD/qjSCfvXCO7qVvlOuCAA+qvfBdffPE4XEyf3ANuPuaWpBAppdIRBTGRz68dkY7kCyn7BGUQLiQ2wjdCN6oXn9uLX/zikoyt6a45fbpWcfwQTb4hGmKCWSi6U5IWEe2BIrHtq6JFEL5P0gHrD3PZkWrlqv6fgYzrGDNAutAWNjsGkn60Ea4MsIVr5Kz7Rsjah2/1vlOg9U/tyddfdfiuQZW0jjvuuDpvyjE/OZwCGuGqDMoiLQMygyXLBBt5aw0rfa31r5b3CZe4oCx9e8BNRHuBcwlSjESKST/RrM/DH/7w2mFKj2pvPcnoUUjOSE/NN/3pIYccUvpN/9YnMfmTgIcffnjpXelNhd1rr726iy66qHaNZs99jHxJ8pTr+OOP7573vOeVlKU31ezT5dq/LxxpmrCxcz3gxmNuR/d96RjTKrqkGfWPdaONuHXqnm0eJBu0ZxqPzs3fi2cGyny/2SU/37WelFqKO+0BKZhz+Eloq59IXHEgeUubpLTI+q//+q9L66As1hmQxtI0A0bqNrJWPBAvzzDgxmOuVVCp2H5lIwnyIJFznuw0dU6pphtZbcoTLl0FJ0Qfe+yxdYSOMBavWPGPmJp6Kiub/pDK9Cv9qt0BDj9zRpRFKn4EgfjQpGqlLS1HANlXRdVlwTXVFLUW0upSBAg+kPRmoFXk3KLfRGpG3Wt6QZN8zDHH1Ej961//ejWxjtix6KSRoZp/gyTL8xz4kDjiG6F/+ctf7k444YSuSdfu/PPPr9ks3QDpNYlao3aLW5773OfWAhfxGGXQ9WDHKFuTrOM8d9ttt3LPIIrtfsBNw1R/Nra+0Sq67EikRrraCm2g5CAzWz/MUBnMcCMd2aRa65+Ott9++9pX7x+nwtrD5LAz26Fbn7IGTvJwirSm24Y8Ule3gcT0Ewl/49OVSJeC7RXa9OcHEyYZSNJGzpp4IKUzmOpLUvn07wcpuwYg6VIBadSXaOyvfvWrpe887LDDSsIZTG266aY1v0+iMnSjHnWDDTYoVZPBUyPOeIDFcLOYWlyDqfglDYaUJK1JYtLTwKkvKQ286HGFE56KzDx/JDg1Vsrdfx42M2BhLCmSTiLNLnIgmNPwkIcOVVcAEZEvpknM+olun4DWpXIXln3QQQfVjJJ9TogtDD9ETzx7pmgBQjIklK/y2JsVouo+mJnSFQhBEVp4trgDSdeOJU1SFYsYKvptb3tb9T+dytcGRd3KlSvH6ikGyULavh0Sum/dgiKXsO4jgS0NbAOsmvESRvj99tuvJgNCMuVAVPf6syYc2uCqlglKp3UVagJAmIRjQtaBpKvHkicpkFJAimnSkcPAyNpSkgzREGuSnKSia3uikOlZz3pW9/znP78kqi6EZXn826i/5uyR/4gjjqiw4h577LGVd18qume3vmxJZbpa4eVnv9a73/3uIjQIF8IOJF095loFtS5olVsDk/Ys9YOG6DDf/va31yyTVfWNIKWasnKpEaLCcxMXDHQMcOyxtxzP4IiKyqorA6cmAWuwZa+VJYPUTOC/pvSs4gRJm0qK2ssOg/ZhVN7SVDaqL6otetYmZcflFw+UK9eT6IebxEJpTIbP/ZrSmTcsqdH9JBYqOhL6AdnOO+88XmKHuNafmvr0owiE7VdS7D45kAhBm5QsvShNgtP+/GQC6RzlY2KBvhYZWzfh/yMbKA8iIrp1qH5LaeLAhMG+++5bOl5piCfdvg3suPXLF5uf64Rz3aRz2fS9PjTlsj08kxPCcVsyaAVedtCcGlVbWOJ4c8v2DFb0Ia1+0lR79FZR1ccUJk1/I0PZD3jAA8qvVfbYjdG/pFu1Mc/iElOr2223XW3+02xr+huZqhxpxpm4N4lai11e//rX19Su06kPPfTQ0tMqt3Ax4usO5Hoy/SDpM56zfZC1SktXR/dnxx13rAU1uiL9uJPpzCuWHUlTkYCU+oVG9FZAUc4baVMxIR7CIVuThKv0WxF2hx12qP6kwZi4Khth+Ykb8iKyffn6rJMkYsfwY/NPP/ajH/3o+FwBO12d12+XrPUJ/ENMQODJ9AN+3Nhf+cpXaiVXv6y0DU2KV9iUZylhWUpS0ieEoNO0ptRhEwgVgoaQjHsVisxG9+6F40ev6qAJgx/3qXykJg1POumkkqR0pvIMGaF/rywpF7dIyCuvvHKshTBbRr9LM7BixYru85///Dguu28CaUWl5aOkx1Vm5ctz0Sz01V6J109nnrHsSKoimD5RXdOlGvWTngiBcEhBH4qYkTohsDC5j1uuhW/9yGpOaQIspm59zfog/B2l36wigzIAonAPQdO800LQLNAy2EyIYMqJbM6iOu6447oPfOADY91sn1x5Rn9SIfF1PzyLZ1Nm95r/lCEknUyjbwf9+8SD/vUssCwl6UJAiKuvvroqDQHSvCOCJvchD3lINblIiKD9MDHc4i8OCYuskVppuv0pJZIreTs6SOWSuLoGCM1wCxmQ1fYYUtvkBAmtm+GjkD/y6ZpccMEF3Y9+9KMiewifJj5lVSZ9Z1CWfBDAFs/HFMKlJVC2+LuPv2vpAH/pzQq3CJJ6qakQlaBvilwIutNOO3W77rpr9VVtmyYdNb/+ZqLSVTbTJ0CIGhMCRUojlnOsVKpV+3vvvXcRSz83H4KwZqTs1bI+lbRLXxUhGL/6UZZ0PZjkSVKKT3ra3h2/lMH9tttuW4tvrHNl+yuLv7soE1LKSxm9F6R/9atfXVtzfDwhtjKxvTdGuVLGWWFJq6DWFa0SxioXj9sqsYy/6NnWzKaqoS/daqutauW9Xz5SQYkLjVjjBStJj2mVVWkm3UbWuqaSssbUWavUTdJn08dSb1nw4szURowqg12qlhU6tcU5rdJh6FbpZv1pxXZtP7NoBKqyyEcZlIl6SRrclckJLOAelDllFZYOmUqNrla56G+dJiiMXbBZbEMP7PSWRvJ6JjsXLKRpH/PM1Fi3CJKCykIiFerlu24SotaEOpzMPnwLqFVYVkpZAK3ykENYlcs/JFfx0ss1hMRNohUhQowmEUtXi4C2RdPZIhWSNulVR1cqh4N/N9tssyKsX1gikfWq8jCJYFLA9mzxkdWkAX2rY4jawHCcHz+6XDpZC70ZZw9Y3eVDEcazKKew0vevVx+M1V/3bB/RBne4Q6XnmSwU94FYEWY1WGt16nlngVsMSb1s8Lh9qQoITFpZWoeIJB2CMMhqSZ8zSq3sF6Y1d1W5yMgkPRWdD4BpfdSSQv1wrb85Ouuss+qACz+lcOAFQiIKkiKIWSqLrpHDcep+cuHkaQQn3S3uJqFJS5LOxIWF2QiMqNzagK6eRX5s5HzHO94xuvjii+u5WtNdZ12R1p5HuX0QFnr7KOww8OyILE8fGMIjvl+uWxrpGWeBWwRJF3rEPqFAGPc27dmkh5hW/Tv0DJGQyAyO6VazWNaX8jPF6VhI/qBJdM22ttUvzRG69fNqhoqNGAhLCiKLcMiPGAjpo7nmGmf1X/8B+RHapZdeWv+uUl6ET/mlE7v/THku4CeOZ8y74J9rH4Mw8mJzV2bkBfeIz186Pqajjjqq/GaBW4wkXQj9SoZIO8Rxosl73/ve6g6oLH1FJ/Fptk1xtgFINZ/Ck7wqldR0kjSDuCo1acMkgZK3+NYFrFy5sojbRvW1eBqZTbmSZCSnLocygmrrl71Pulzzn3QDpPRMbO55bujfp7yku6lb3RB9VS2A+1nhFkvS/mP3K1DluY/RvCGj481d27xn4PDoRz+6SKSvp09psYlm0uBLGER2FKU+nLQRApERzTUiJE9NsnxJYG7CAZIgiCY35EQe8X0A/WfoI2UPgQPx+m7CSCNpyoM/ya1rYcu4I9432WST6jIoixZCHGE9/yxwiyWpyoikYfqV6j6VlopFIiNtzbv+KQMGWaSr5l8likP6koT6na7TFYC87j5BXPdJmHIggTDyBuH4u084bsGa0mb33ZUbCX1U3Gyn0Y2Rp0GR53Htg+GffOTJzUcykHQRkMro2/0KBjaSqCS/3PGjM027pt6gQwX6cdp97nOfkkYGNKQnaXjdddeV1CRdM6ARljSmRZCerkbIaRDEyFMcgxddAkQxqDHadh2yLlR+NiNNAybLCqnckJO78orvY/zxj39c9/kwJz9U5JZmP91ZYCDpTUQqCmHZKti1wQ01ElWOUTgCIphmktF0krxZ+4rMugcbbLBB9T2RWhppVpGLeszxlwZz1E8kun8GvOUtbykSCRtpKx0Snb4XKfnTbVIvcTcAUl7EE4c9K7LdVAwkvYmI9AoicUmbIGFIUZLWjlJqH6ojhKR7ZCMlPyN/kgych4qgdKnSli4CUmu55o7QCM428NInRkxaBJB3v3pTHvEjGaH/HPOIgaQ3AV6Zio0kAkRS8UjGr0+IINIuJBE2BARuSc91/PpuIN2UIdWXNPrVmTIwq7sXL/fzioGkNxGpYNA/DZEAuaDvFoJBnxjC9omjOvizuU36s/n1q211fkknSLi4+WhI67jPK24RJA2hPGoq8uZWzEKvjVuImzxCTtf9vPvxE24hUrmPcR/32EjsYxA/7kmjf88k/fiL5zrh5hVLmqTr+oLziCpUE7sUKubmwPOF9J4z1yFynj3u8475L+F6gMqAVNgS/i7XCZ4zXQ1Nep+ouYaQdd6x6CRFmJtKmnV9ySosFbfcpSjkfablCFHZ/NLsL5X3MNPmfm1Z3diX1n/Ra0s7/gm/VCropsIEQn8KM1LU/VIj6cwkqZcSoqwOq/PvuyeduC10zaRZz7URuClNi0TM1tBJLif0n50xajfDZU2BWa0dd9xxlWcWZqlgaiT1EiaJMvnl5suOgf71mtAPnz4WiQG5lz5yUp4fcMABtSjEnLsZHJJmuQAZA+/Ds5k+dZCFFVV2BVgyaA1B3nnspYCpNfdJNkT10vSPrLDR3KT5gT5Z49ZH/BFOv0o6rs3SsKVpO0YfpilNS15wwQWjM888s2Z90syxzQCZqVnqyDvzHsxgkZx+oOa4dqTMezYzZdGyZYERGAu963nEVEnqJXghFl5YbW51ODeLK2xhyAJg4B4SJR471yGWBRgJA65JSCvrzUsbHDFWtu+zzz5VeYF0QFxbMZYDScGH6zl33XXX0XnnnVfvhPFuuXteU6akqQ+630ddEmgPM1U0YtTuQ8e+tK94vJNR1mz3Mbnn13fvG34xcZN2a+JqG26rgNrN2KRo98hHPrJ2bjbSjvNkNtxwwzpIYTmhfbz1ozTHU7aWpoxnzrXTWJyMoj76Zilg6qN7XznJ1l5ILQ4+5JBDapVQI9dYcvLTd7J70YiUO1h4oT8Z1YnVP9Zo6mORwtIQ14JkfU75gGbOCnfx3/jGN9a/nzT/0pA2CWp1kh/fLgeQjHkXlvN5H45Zd8/wM1jU3JOkcWOWBJB0mmgvpKQbQ9qRcK3pGUtFUs61PeEgnDiJJw5jn/g111xTZ4SefvrpdUaTeOI7QJf0ZMTrX5PiBx988Cr70Z060vqold9ygXflmdmkqv343q/nZju9xfuDvN+lgqmroFoeY+PLtc7R72Vy315qXevQ6z+1l1fu3KC95DIkrL6sJWkW7e63337lL5xlaySkeHFz3yqtFg1Tv1hgzD/pL2doRbyj/vMu5eeeOkm9mBjE8bJsXQjiB5prBnHjhnAMN36I7HqnnXaqLbjSC0FDbNfCGDhwkx+SChv/5Yj+c0Xb0Sdp//1A7ucdMyVpQCK6778kUg+4IR2wQ0DSFPHY7q1wt7VW/9KKc+RF4sQL2cF1P62QdTnBc/WN9xF38MF6fu93kqzzjqmTFPovz4tCNC/KfV4at6Dvnvs+Ev6FL3xhHYhgvw4gH2Imr5Az5I1USbrLCXnmmLzP/nsM+C8lzISkQV5OJFn/5XGLtAP25Mt0L07cSV/xuIWI7MlKiUSFEHW5Ic/M7hvwvBT93lffbalgpiRdF+QlTiIvtd90A/fJF76UKmBa8B7zHlxTy0UQxG2pYO5IGniJky+yf99/4bAQWaeFybLlvu92Y3Fz4q4JfaK6vrnlXAzMtSTNC43RZPmziC3Cefl9Yk6DpJNliAkW8mPWBQnrgwvSfVnIxG9dMPkuQlBI96efV7C69BOub2aFuZekXmTMGWecUWcj+S99/6X3+6/rm6gpx6TpV/CNMUHu82zxi1v8J00/7JowGQ8yqARu7ifDMQthXcNNA4tO0vQxPbQKCPkY16kUtmlVq5ko6Ln1m/s1IWmyk9fakHwjdVKhbH7gaBqn3Vn+Z8rRVC2/+AfyjZFGzGS4pG/a1xGNn/jEJyptR/aY4hU/qrpAHOC3OiRfI/48V9+dcZ2yu4/N/PSGZY199zXlt76xKBvxjjzyyDo0FvKwDgVzqke/OF4Ifzo/q5+sdnIUjUpzCgi/dXlZ5v8dqajyhTd/vdDcvbyZEFnYuLlWBiceO22PNEdSbsopjlmzPffcsw60zSwYTJYxz4WQCSNdx0r6IZn5d8TwASOlGSQfppVMzm+ienNQRDQa0C8vXHbZZWPVHHd6ZUdX0iu7l66TAa1r4OaUPO+Z7V46ytAXCFauOQAY3E8+19TQCjBzvOIVr/Amy9z2hrPmmyQqv/aial75qquu6i6//PLuiiuuqP9x+r/n7W53u1rVZDWP+Xzh1gXSah/AeL1AI+lqV0ElTXYj0XhO3N89/GhBXOVI+Vtlja+lz885/OLHSCPpQtyla57dGf7WM3gP0mNyLU3vKG63v/3t6x+qQdJK+rn+1Kc+tUq5GvnqrHx5eseMf0YpbyP72Mgjxn3qh/HrnibR63lmiUUnaSrZC/EyvQw2kxecFyasl+2vcv2KWRuaJK0fJPTz4jaJfnpJ30IUf35OWZn73//+3Wmnndadf/755ecHCymj8jZJVD9ISBp9ksYt7v6E5x9T0kUIP5SQ9rve9a7une98Zy2O2XzzzctfHuw3vOENFR/hmKTXT391JOX3k59c/6ueNgCtHz2cfPLJnR/+Kj+DuPJhW/rn5xO77bZbd84554x/PsHMCotOUsaLYYegqWwvynVemDD+DmI1TypnXYCQ9773vcf5sBF9IaSSQT4qT/4pqzWxpDtJpMLAv5uQQJmVk33IIYcUCZnJsoa0fi0eAkr7qKOOqjSlHSKQtKQ+ogiHyHvssUf5JdxCH8FCJNWiJDxba8S4fulLXzouB9vvf770pS9V/gkPwvfzmwUWfeDUXmCZV77ylbX28+yzz67z2G35sC7SDwwc190qZDybxAT969WhvdCy28utvHI/ibgnD302216gfUAV1+p359i3iqzySFNf1EorcA/6zlGVMX3k3kG7zi+Vr36nv37IR9oJw90BZI6GdFa9sE7sS7o35l2IOxmmka/+tvKqV72qnscqNav7nd5nkYrdDuLIS3xhUraZoRVg5piUpEwb1Iy/ThIiNjdSrw18SiKQpOlb8UucNYEEIUnlIw1mIUlKQjC5JjHzu0f/fPLvT/ESLmGV88ILLxw/i/Sf9KQnVVdB+YRLOVNmbn7MS6qTjuJpxief3XMyJJh+cSNR1wZEY7+kxQY2s7rmXrrCS8/9YYcdVv6ecffddy/J2U+TESfl6LvPCnMjSdvD1xfLkCbtJYy/XqucTjzxxJIqpExf0qxPJF1lcE3bYLT9ute9rmySnkYgeQsHwjailTube2v2x1K1j8RlG6GDcNLQapCYdhHwb+RYJbzRPX/ahbyf+C2Ehdy5iUuD4L/+ftFDUrfmvt6xd6/8wrGFjXTP+4mZFRadpNB/YC+lX/kMOGzW2Zz8p4VUDiMfH0Xrm9XfR6h+qJU0d32krLHFE98248mwQfLRTUB69wwdsLzaIKV2ueouhKjeQ5NkFYcKzX3/Xa0O4vZtHwSdrn9W2VXq3tabl7zkJVWWEBGSb54pZtaYC5J6CXkZkzZ4MXR3e+21V+npSKC1Vc5NgXySbq775WBPhsn9JZdcUtfCgzL2y78Q/M3DCcx9f1KUtHzOc55T+76cY4/weSd9+Agm3daGNkIfbb/99nVqdOBjlNak5O5fB9N472tFy3TmWKhP2gYQN/j+X7+qb9oXXyqT7NPp94/WBn2v9Elj1jS679vJgw36cu6Vg273rW99a6mJjPpbZVYfk3nBC14w/qlsDPTvPYM9W35eq0ziM64b+SodfeGHPexhXetylH44fcN+Wn3ETZ806UmLftmI/c53vvNYA8GdsZPU++8/KyMf98lvsbBkSNp/UXELcdaGG0PSpJmKko+BA5sq6LOf/Wy355571h+ZVXYqmmkSaUyMAw88cBwvJukGIYHBikHLHe94xyqb+H1b2q1fWPpZf3IWJ3GTbhC3SZKylc8gbZKobB+Cj8rGxZQb8g4WE3PR3K8N7SVWs9Ze2LjJjfv6RHsflU8jwA0u17v5f9OKFStGW265Zf3XiJrMiiwqo6OPPrp+lrv33nuv0hSmrH0kfe78NbFsA5NTTz21VEt+TJvnjQ3imDr2sy8ns6Rp5i7dft6rQ2sFRkcccUStJLNRT/4MXHHFFaNTTjll/OOHpAvr+z3faLSCzBzrKklXB1/3jcG6StJIEOmblSFZWv+w23TTTccSR9O4zz77lAI/YZmPfOQj5S9tzbQDK6QBeZ6YSEHx5MlkFoib6eBnPOMZ3cYbbzyWotJmpG2Gi9I/cWL6eS3U3J911lmVF+hmeCfSk75y67KIJ13lkI6yul5MLAlJGrSXNpZG7PUNUiXpk24GGX5F439J4B9IpJ2DFyy2MMgRvhFhLJHEVU7gPgl+KX/i9u/5+3VO6+vW/6H8IjFpg2sTAOeff37FE1+8tYFGwOEbCe8HuVRqUZlxbx9zTVaw++WRz2Jiarmv6cXlpSCCF9B/CfFLfHauUykQe3UQJ6SejJP0GU17wsWA/ybZ24+IiMH4hbbVV+Be0whJJ88hfSbpgmtI3sLTVYboyNIkVqXLdk8vSj978skn1/Zt6Wvm2Zbyibc6I0xM8s21NEDXgbqLH7CtFHPKjMPghE95km7/elaYGkmD/gOxVY6Dx1yruBgvJBXWd4e8xHWFeKmUXE+WI24+lKSfSuSOHCELm0rJP5KSjjj9CovyXn7uXXtW9mRZkARB9XHza3LhEALYyUNYulN6zbwPftaXCpf8hGUSRnoQ/7hDyqTMpKl+tjCgnJYM+i+q9bHc5ZP0U0bXs8LUSNp/CA+aF+UlmLPmz829B/fSEaaFHodjwH1e9togjLRVRP86Lzpp+pNy0ky6BhapBH79dHxArR87LhvyhODudQlSZsYzCpP0kwdCIr6TBq1zdXaAplu+KY940pA2InHzgQiT1sdsWMoCypn4rlu/su4TPmVwnQ/PvTCvfe1rqzsgP+VjWy/rVEICJWHZIM4sMTWSTsJDeskWXjiwDPLywAr061/y9e6uVRYkzLpC+KTBtsA5zRc35TjuuONqRifhQ55UUmZ1wL1KN6rXX0sYbtK98MILq0mWDiMPfdf999+/SGjxiYXeSQt8EJToFPUHHXRQ/YLx2muvLf/rP9bry8V4Dxa7hIgO19BXFi7E8UzCshlHYfIXVxxS0dGPwvP3bPzkpw/s2cw48ePGzxmnnkGdJaz4eY8zQ3uwqaI9VI0QmUaWbpttthmPlNkx1mBSgJ9yyindZZddVsry9iLGI27x2WuDMMnTtdGqIyD7ekGP3QjZbbvttt0ZZ5zRtY9mHD6GPlSclE8c93SVjXRV1qc//eldq+CuVW6NkhPOtbBsRr5G6/IwGaB8l1xyyTgef9fKQ2lvjafRt8mLSy+9tGtEKR2q9IU95phjxs/JQJ6Z/Z73vGc8uRDdrbgOLWvdi27lypXjJYHspHP88cePw7K9I8bilBe96EXdueee2733ve/tWlel8pwVpkbSPDhD3aNCrWpPpcSkYtn8rDxH2DZQKAKpDC9TOq6D/nUfCU+NYk2ntPp55jr5Wf2jXEiUtZOMCj/66KOrPE0iVVgm8ZRZOtRBbUBVs08777xzhe0/k7SbpCzSSTNEsuprs802G5eFcS0/cZDMO6B4T5k32mijbq+99qrVVcguLc+bNK2SIgQQuv+MSVuZkFa6iPea17xmrG5im6xYsWJFhfEcSUM8Hx01FtNaodW+/2lg6pIUYZCUBDLFZ5nZ1ltvXS+jdc5rZoak2GKLLWrazkyOl6KSLH+DVEIfa3pJwiLc/e53v0qLoeskUZk2YOnayLbsxz72sbX6vA1OarYFSBd5IgLpoVL7lS69TTbZpGv9tno2ZWEsrrakkL+K3mWXXWphc9ICZWOEpxs2pSr9xAkpYodc3g3pLq60kiddbtJrI/46IFiclDdllodnz3OTkPvuu+8qRJcuotomk3h9oorDbt2AijMrTP048vbwdd8euNygPXT1afgvBHH0p/j3i7e68H20Chv3JcV1317u+H51SFnlm7LF1nfVn7NKySjfgbQGMvzklXTlxc2gjB7VqinppUzSV5aky/ADf292XLvNfRB/aViIkr8ze4/Qf3/ckw4dahMMtbxRXP1MSFi2uCl3v/xs/gZ0+qGNtLXqSh+Yuk2aCSde0pw2pkpSLyMvtX+fSstD5qWBcHmREPd1hcFMa5pWSSNpxgDC5MORR8qgghEphEs6wvJDOnHjlzj5qJKOMEmX32Q+oKxNepYbJF6I3Y8rbWDzS3oMMuVDFCdlA7awyTfukHyTZsqlDN4h/34Y1/3y9NOaJqZGUg+Uh3CdF8AtWcY/92zh8sLcJ8y6vhBxIR+H+1wHSbdfxj76filbniFlhPiBsPIKwRI3cRLWfT9d1yE99MMrN7++zb9ftoTPc6ac/Y9VXCROutwSn91/Nki4vhu4lkfffxZYlH3308RCj6MibioWSm9dX1k/34XKsKZ0En51YfrpCRMT94XyC9bkJ418BBC7X451yWN9YtmRdBa4Ka9soQpdUzoLkaOPyfSEY9aFOGsL089zTeVYl7zWBwaSThlrI87a/CFVJNyawq+PvGBdw80KA0mXKRaq1nki3o3BQNJlAFXYJ+Dk/c1FP70+XWZF+oGkA+Yes9EhDBhwMzCQdMDcYyDpgLnHQNIBc4+BpAPmHgNJB8w9BpIOmHsMJB0w9xhIOmDuMZB0wNxjIOmAucdA0gFzjtHo/wFqK7C1/Be8VwAAAABJRU5ErkJggg==" parent="1" vertex="1">
                    <mxGeometry x="102" y="246" width="70" height="65" as="geometry"/>
                </mxCell>
                <mxCell id="6" value="" style="outlineConnect=0;dashed=0;verticalLabelPosition=bottom;verticalAlign=top;align=center;html=1;shape=mxgraph.aws3.mysql_db_instance;fillColor=#2E73B8;gradientColor=none;" parent="1" vertex="1">
                    <mxGeometry x="252" y="246" width="60" height="64.5" as="geometry"/>
                </mxCell>
                <mxCell id="16" value="" style="rounded=1;whiteSpace=wrap;html=1;fillColor=none;dashed=1;strokeColor=#F0F0F0;strokeWidth=2;" parent="1" vertex="1">
                    <mxGeometry x="425" y="82" width="285" height="160" as="geometry"/>
                </mxCell>
                <mxCell id="23" style="edgeStyle=none;html=1;entryX=0;entryY=0.5;entryDx=0;entryDy=0;entryPerimeter=0;" parent="1" source="18" target="22" edge="1">
                    <mxGeometry relative="1" as="geometry"/>
                </mxCell>
                <mxCell id="18" value="" style="shape=image;verticalLabelPosition=bottom;verticalAlign=top;imageAspect=0;image=data:image/png,iVBORw0KGgoAAAANSUhEUgAAAKkAAAC0CAYAAADvnQxqAAAAAXNSR0IArs4c6QAAAARnQU1BAACxjwv8YQUAAAAJcEhZcwAADsMAAA7DAcdvqGQAADpVSURBVHhe7d0J2HVVWT7wo6YZKmIDlpSKmahZOAs44AAqSGqKKTIYKKPwSSCBBqmQyKCEgqjMYmpoGqKiSZoYKoKhUuJnTuWQOSBYBg7V/q/fA/dpf+f/fgPwnfOe92Xf17Wutfea9173ftZazxr2rbqG0YABc4xb32APGDC3GEg6YO4xkHTA3GMg6YC5x0DSAXOPJUNSSohJRcSgmLhlYK5IGiL2Cfk///M/o//+7/+u61vd6lZlw//+7//ecDVguWNu9KR9YiIjEoaUffcg1323AcsTcyFJQ8IQNZIT+oS99a1vPZDyFoi5kKQhJ4OQP/dzPzf6z//8z9E3vvGN0U9/+tPRz//8z4/ucY97jG53u9uVXx8DaZc/5kKSIlrIhoRXXnnlaJdddhmdeeaZdX3BBReMdtttt9HXvva1cR91Dr6tATPCokvSZI98mnOS9PDDDx/967/+6+iNb3zjaIMNNigCP+95z6vr0047raQrMvfJPWD5Yi5IimikI+KxkfSaa64Z3fGOd6wwt73tbUcf+chHisQf+9jH6j7FHki6/DE3o3sSFAkV50Mf+lAR9Zvf/OboqquuKj/YZ599RieddNJY6g6S9JaBRe+TIiWDbMgHj3nMY0ZbbbXV6Hvf+954pH+b29xm9PSnP72uhUfSAbcMLHpNRxr2+6S3v/3tR8cee+zoxBNPrGtuiGnEnziRrvFjcj1geWFu+qTsFIX01O/87ne/O9p2221HX/ziF0c/+9nPqo/6vve9b/SgBz2oCB1pipx99ZT0BiwfzIUkDUEjHUO+r371q6Nvfetb1dT/0i/90ui//uu/Ro973ONGv/7rvz66293uVqS9053uNLrLXe4yOvjgg2vUP2D5YW46dsiKjICwl1xyyej5z3/+6D/+4z9Gd77znYuA/O9+97uPPvjBD47OOuus0R3ucIeKp6vwiU98YvTjH/+44g9YZmiEWFQ06Vl2I1rZTVp2p556avdrv/ZrXSNl16Rq2Y2Mdb3BBht0v/zLv9w1KVpurVtQ9oEHHtg1ko7TG7B8cJuXN9zA10VBK0NJw4zi/+RP/qTUT9dee201/5p+tjBsUtO1Zv66664bu3/pS1+qtH7xF3+xJC6jj5q4/JjcMwOWBhZ94IQ0iKgY3/nOd0Zbbrnl6F/+5V/KL8p9MMrX5CPXFltsMTrllFNG55133uijH/3o6JOf/OToJz/5SRHTrNTDHvaw0X3uc5/Rb/7mb47ud7/7lUorAyskl5eB2SQG4s4pkHQx0UhaRnPfSNgdeuih4+adnea+Eayuuf/Wb/1Wd9VVV1W87373u92FF17Ybb755tX0e6TEd98ka3eve92r0r366qsrn5/97GfjfGMGzC8WfeDUCFKSjRRjb7311mUz/EhHUrD1UUe///u/P3rVq141an3S0Vve8paKr3knba2USlcg6bk3vUpLcPzxx5fUHbD0sOgk1dSn36k5/tGPflTuyIl4FpYY5T/5yU8ebbrppjXaf9rTnjY644wzRu9617uKjL/yK78y+vznP78K2UPypAU0An/xF38x+uEPf1h++UBiBswnZtonlRUSIUdf4jGkHvc99thj9Na3vrXc9EOpnPRR9Tm5ITQIT8L+wR/8QamivvKVr4we8YhHlPKfsh8hDzrooAqXj0B8fVF6VeNFknnjjTeu9Ejj9FnZypZXI14fk/cDpoxWETNDI0r1O9n6heC+EaRr0q3bf//9x/3KRoTqg6YvGrfYG264YbfDDjt0F1xwQfeDH/ygaySu/ibTmvjut3/7tytsI3LZ+qlNMo+v2Q984AO7f/7nf678lYetbNRgub722mvH6rG4DZgtZipJWwWvIp2uuOKKWtD8uc99rkbo3/72tysMSWYalJ1m3ywTCfmQhzykJKaReyPq6NOf/vTo4osvHh1wwAElWaV/zjnn1Ch/v/32q/n+SFKQXiPbWBpKe8899xw985nPLI0AKStfSBhp5pqd6wGzwcxVULLTpJqP1zRTO6UImmJ+CGVw1EbxRZyHPvSho3//938fnX/++bUYWr+U/3Of+9zRJptsMnrFK14xevOb31zNNwK+8IUvHP3N3/xNkdNyP6RKE272aqONNipymlb9hV/4hVJt6QsLv+uuu44e/OAHj373d393vJ5VfH7KxmYGzA4z75MyKnn33XevEXqkK+IYqSMhf/pS/dB/+7d/K5NispFGPOGQjuIfaelOEVvaiCy9e9/73kU64d7xjncUsR/96EdXWldffXWRHFGlR8peeOGFFf9e97pXfUSWB973vvcdE1aegySdLaZK0iQdQkHc/viP/3h0+umnl4TbZpttRne9611Hn/nMZ0Yf//jHKwx3UtF1JCFJBv0ic0cyhHz4wx8+etKTnlQDLiT/jd/4jfHI/sMf/vBo++23L+W+1f0IS8oedthhJVWVUVqXXnrp6AlPeEIRXz7Ijaw77bRTkdtCF8gzKZN4KeeA9Y+pkTSVxka2kEXlAimGIP/0T/9UTa3VTlRDEEKLk74pMrhnS1PXYPPNNx896lGPGj3+8Y8vCWqaVLqIpLkOpNEGSDWiR77Xv/71taKKtNSPBWVlrGFVLvlEurJ9CHS49LRtUDYOrywpr/sB6x9Tb+5VcKSOrBDmAx/4wOjP//zPi6CaZUhlI0efADFIaXkeYpoWZWxz/sIXvlAEFNdAzEDJtOiLX/ziVQjtGjHZCCc8E+IrI2m7995711Zq+fPzgflIEP+lL31pkdoHII/Elf6AKaJV4lTRKnmsGmqSrvvTP/3TUgFFNdTIUComhjubWyNG15rtrpGhO/roo7vLL7+8a4OnSo+6iZrJdOiXv/zlum4kK3VRI31dy4tNxZX8xaVq4g4pkzBNutYU6ste9rLu7W9/e3fQQQfV9KtyKo+yWpl19tlnd3vssUfXPrBKQ1oxA6aDqZM0FWgZ3XHHHVe6SmRU6SFlCIoMluJZdtf6hl0bMBWJkLL1IYuARx11VNcGM91FF13UtW7CmHwhIHBLvnFPOG5I+bnPfa579atf3T372c/uWj+1u8td7tKde+65Y72tfJH/4osvro+k9Xfrw7FMsA22uhNOOKHCJo8B08NU+6SMZrMRpObNn/jEJ46bcU2o6Uyja5vu4HWve13ZmtM3velNpRNtBK7wluJZ1Gz3aJPGoz/8wz+s6dJGkgojXdfJM2gEqi6AOfzvf//7o8suu2z0zne+s3Sr7cOoQRYtgkEWnauBUuJLS9rKLywtA+0DXaqZMN2GhBkwPUyNpCGPCnb9e7/3e6W7RM5f/dVfHR1zzDE1WkZUfTo6UFOcwlLENylXU6Tu6UiNuO0edbKJwU2IgTwGXvq2+qYex6SAvqrTT0ypGpAhqnAIaDQvnn7rU57ylMrrs5/9bBE3q/3lCyGs58jHAAmTcsg3fgPWM5B0GtC8gqZQX/K+971vTXk2YlY/8uMf/3j3ghe8oPqoTTp1Tcp12223XTW7+oHbbLNN14hTaWh2hTn++OO7zTbbrPvMZz7TNdJ1TTp3Bx98cLlpihtJxl0ItvtGuu6hD31o5aV5f//731/5N/JWGU2BNindPeYxj6l8uKVbAHkO9ww/3Yc08XEfMD1MjaR9IKlBh4GJARBSNAlaA5MMdNIX/NjHPtY95znP6bbccsvu9NNP//8I8Z3vfKfm63fccccipu8MGRnkdG9eX9+RW+sSFBHFzaCpTzz56n/uvPPO4zWq/fzAPSNs+qFJJ9cDpoepdaZa2mVaBZbaCfTlLLczV69/SGepnwea30aq8t93331rLp7KSB+UO8W7LoEmuhFq9O53v3vcBOsupNkVVn/VKShve9vbaiaKuov+NOVhUj7dDzbVUhT40hImSNmETfjANb8BU0R7yVMBKRNJ0/qINYK+613v2n3rW9+qZlfWzJOf/OTua1/7WqmPhH3JS14ylo6kIY0AN90EmgHubcAyvmY22mijavZPOumkrhGyugbyjkQEaffBj4S3CormgSRduXJlhePHlsaAxcdUSQqaWE1kGziV3pM65zWveU31Ge92t7tVX7WNrLsVK1Z0J598ci2f03fVdDNttF3NevqY7Db6r76re2E23njj6r/mo0ieuV4IiLjffvt1f/Znf1YfjmV/+rhJYyDp/GBqzb0ms6VfTSVjZVKr9FIzOWcUzB7x05RzNx2pK9AIUnGlkalSbu6N/KWjibdcz5y6bsD973//cm/kq3CaZfeNyJVWkGvu9u9bM2AGzGosKi7uiTdgTtAqbapoFV5SzQDpiU98Ykk+EpUUJCHZJCcJqTj8ueU697kmhQ1wrrzyytpYp6mOtHQdI08gMZUhICHBCF834R/+4R+60047rcpkNklYYdLkD1h8TE2SRhqSSI1ctdTNsjeSk/KcO4nlXliGGwjPnaQ88sgja7XUUUcdVYtIDMIs67POlE6zkbHCi0+6ZhBFkvbTDJQJLGgR7u/+7u/Ga1pJUkiYybgDFgdTI6kKTiWrdOaRj3zkeJYmREjT6h5pNL/2HSGYfUtNclYX4EUvelEp9zXtiCm8ph1RKelBOl//+teL4NJlkq6wyVfaFPq6Eg7ntdnPwmoTAim3OMIOWHxMjaR9hKz3vOc9awExAsSNnX6k/uZf/uVflvR0jdCITYLaVGdbcmuea7WSeJHCremuFVXXXXddqafMMoWcwkViAzdxbEVpg6ZaKG1qdrvtthv94Ac/qHgp20DSOUGriKmiEaL6eYx+ntVGjSjVBzUqd60YjRhl7nSnO5X7gx/84O5pT3va2N0sFHf9WAdBSE/a0tSvbM1/d+aZZ45VWRalsPVX2ZA4+qsU+O75M29+85u7Jq0rvYRlBiw+ZipJSTOb6CjYKfb1AfUdoZWlbE234x0p+//2b/+24jL6omnWNc/cGuEqni6CBSK0A3FLn7SPpGVunz8J7p50ZZyHqishnvsB84GpLnruJ+26SaYihqZV82wWqE+IEC/ESXw7RQ26DKT0Vx0OgfD6lPqRBj7guMjf+Z3fqZX64konNrgOGX0o4F65rIyy54qtm5GypJswYPEwVXERcoBr0gsBNttss5ru7BMJ9EMNkKLzRBLGyN7Kp/3333/0rGc9q9LhbxsIP6eXGKUjveV9SQ8BpZ88Uh7xV65cWQSUjnv9UautrJbiBklnwOJipm2aSmdskgsQB1m4a/4tt3OkDjWTZXy2czgVjwRGHrZ1n3/1V39VG+RsqjOg4v7Upz61NvKRsJGQ0o10ZrjpalCJcY/EJo11MZQhZOY3YPEx9VpIhUOIQpJabAx+e2P/EEIgq3WjiEYqOqQMAfU3IxXpWO0MpTri55c5Zp2cC2Xvvd2iCI6MIVk+AoYbcupCCBNprS9Kuks/YfplH7B4mImoCDlB5dtAZ2U7kFzUTPyRRrOtudcE05Pa5iwOglkVZQrTtmNKewOmP/qjP6qF0FY9OYmkT06QrrjsEC8mzb1r3Qhpau7dJ+6AxceitGcGPw94wAOKPA4Wy7I7/VV+Tr4Dek/NPYmpP2oLipE5Xel73vOeGu1bTU/i6hpI05I7TT+E3LEjIfukFd69naj6xJp8fvEfsPiYKUlVPEKQYPqZGUUjD9t6zrPPPrtIFqJR1NvThJjOdnLCiG0kjC0iZqP42SoSUklPHn2SSS8SljqLn3tE9zEoF9jDBANB5wczJamKT/9Q3xNJNeuaf7rRPpFINX4IZaEz9RIy6jMaMJGuNAE28dm4J22qJf7payYvNkJzt8h6r732Gn8E+r72N5nF0vXoax0GzAdmStIQEPRJNdEGUUixYsWK8QIRZCLdENRpd372AObpHcljwcmBBx442nHHHSu8nzwgKunqlD7S2Ag/ZJOefMDpfQivi4GomnthfTCmSu1KzdqAgajzgZmSVMWDyicpH/jABxZxkY6e0pE5JCF/7mwkJCHBdhAn6LnXNxXPKJ/aCuEcm3PEEUeU3vTZz372KqooZHRN+W8FlC0mUepbG2CCgBtJSoKTvgPmAzMlaYCsjNPunGdvRZKBC+U8MoHmWphzzz23tjrTjVJVkXJUTBdddFFJTIOmnHhHBUWZLy1dA6N95Ec6hEdkS/ykjbikJzJaYGKhCTUW8iM3/5RhwOJipiRNpSMM4jgAjHRzyAO1E0kY6SoMWL1vxO3cUP1Y6iqb9UhYZHS0I42A0b70HUpGwmq6uTlgDOQrT0vydDOE9Rc9IFFJZH1VHwE1FCBwyjFg8TDzPmmIqr+JSObjNdcOjkAaBOxLMH5IiqCkLAJaV6ofSjIKRwJzsyCF4p+iXr+TNDQgkhfCudfNOPTQQ+veNKj4iGkSQH+XVKafTTdhwBygVdLM0Cr9hqvrN+i5t7uzEaZ7ylOeUgc+5Kz7JsHKNIlZWzvucY971EY9m+aa9KxNfP7PtMsuu4zPl2Kcu9+a7dpRyt92k0b6sZGvffiW+zkggputLa17UMv0WteiDqxofePyG7D4mClJIeRkkOAf//Efa6+RdaS2IjvVDjlb0zze37T77rvXSXYIa7dpk7pFWqeO2CqNnE3Kdk0qV5gmRbu///u/rx+R2bYcgsYoQ5OeZeeejaQnnnhi17oe9cEMmA/MnKSAECEpMjjeEdGcXOJIRUfjhKTcQ1bXtkCL49jH1qwXORH1mc98ZpELeT/5yU+ukkdM8o5f3/973/te94UvfKFr/djK/xvf+MbYf8DiYuaj+5ZnmVzTfZpJamSoefkm1UY77LBD3TONKOOwjBkhh+VaM2r2yXYUs1JG/O9///urL0pn2kg97gMHyRf4CZN0LVoxypee/i41Fn9mwOJiUVRQ/YpHEDpNAyhTlJTsTrozekckBozMEQ6JW9+0RuD2MpkUENbgh7v0rLASTvjk1SfkQsTj5oNRDpqG1l1YheADFg8zJ2mfNIA0Ru277bZb6S2dH4os1ErChCgkqnBG9PSZpkpJXCN605l0qCSgtaj0nEgaQiYvQPqQtQ/38uDvDyX+AD2QdD6waJI0Js2uGR9ToZpxO0b9SaT1QcekYiMeN6or06IWPj/jGc8oveepp55aTbU5eieTILx4JCwgYIg4SdrcS1sY5LcIOn9CmTQDZotFIWmAHJFW/uiBHJpZazutaqKzRArhIuVc64Min31PfoSrL+p/pJbq8TdrJF1TnHSeIRYpbEFJiMpArnOvf2uvlFmogZSLj0UlKSAeIIh98FYkkWiabkeI64siCjfEQzBEe8Mb3lDx+JOsCGvGClFJQemZlzcjJY743HQZQrzJ5lw407TiW5BiwbW8hF9dnAHTx6KTNJXPNmCx9M6OTf1CbqQfcrlGNAYZNenm/jXzpCXJag2ABdNG5iQy29I8fVjdA+FI6MzNS1f6KYMPxuKTww8/vMguLk1CkDgDZoxWQYsKCnRoEqpmgug/mwTs3ve+99WBD4rYiFE200haekz6UfeNWDUR8MpXvnJ8SFlr5sczVfvss08dRS7c3e9+964NtOosUvk20o31pIz7Ngir48ul8YQnPKEM94QdMHssuiTtN+NURxaAkJDm8s2n8yfh2FFD2etEAlI9kWwGXC972cvqB2BOdZbWCSecUNLVXnoDMSAZrRcVx4IV6UgvmgCQpiWB+r2W9ZHIVlwpg7AJN2CGKKouIkinvpRybUqTNH3Tm95UZ+2TpCQhKUqCOnu/DapKksaPHePM/Mc97nE1a8Uknvn+RzziEd15551X9y9/+csr30hVdiNsSdMttthinK71AcKR1JH8A2aHRZekjQRlWlnGgxLL8xzHoy/52te+tgZAwvAnQf1rSZ+1H5ekY0hCvxQ3MUA15Z5kFc7qJ2FoBMSh/LevSrr8gcR2rV9qm4r71vWoFf3iuAfXDKTcA6aE9qIXHaQUSRaJSlrpOzpjvzXX3ZFHHln9SxKxEahsx5Rb/eTvdPqoJKbrU045pRaqkHqf/vSna5UVqZi4pGMkZCNx981vfnMsQRnXymF9gF/xWMQi7zbarwUrKWvKHTNgelh0SRqQXgyQVnaT+kGZhcgkYxv8VJ8USEb9yVb+mmGiXyUh/Z5ceIuh3fttuLTsfXIP7vV7rU/Vf/Xjs7hLTzjpUz1Zb0p7QL0lDXrToBFzXF62uAOmBEydB/SlEmnG9v9P0tTqKBLPH0hIwHve8571MwjXpKKVT0bz/v1kJVMk4/e///36d6j+K0nqcUlFa1f9dYREFI4dzYC4iZ9rywk//OEPdw960IO6D37wgxVWnJgB08XckLSPVDybaskCZouX/YjMgIfK6bGPfWyRDkljENpaU8RCckR81KMeVfGROKTWNdhqq63KPx/FJDEhBL7uuuv/+Oxveo9//OPHBOce8B8wHdymjXBfXiJ1jtDKNW5CNc32H1kdZS+UjXWXX355qZP4MwFVlBkjC1RMa5q1os6yvO+LX/ziDaGuhz+e2FrSyFXhzPUbZMmXWyNzhcu1SQD/2KfWotJyToBp20bWVZr9Aesfc0nSAAHoTp35ZGco3aW/N9vz1JrgG0L9X38WoSxUMWJHOsv47CZFZDNUffLr30rHGtZzzjln9KlPfap+yLvhhhuWX5OmZQuPmDQN0m8SvDQOPhabAkPm2AOmgFZhc4dGhrLT7GpWzRzpVzoy3P1Tn/rUar4Zj5E+p3szVXSh+o7SEN5PxTTz/DX5mn924nLXp7XdpN/nTFnMQP3whz+s487NiukT0x7YCwXCMeIMWL+YS5ICcqnwEA1JbB2hNvrQhz5U/cOQC9lCVjaj77r11lt35557bqXx7Rt+HYmoVFL77rtv5896wiBsSEvBD/qjSCfvXCO7qVvlOuCAA+qvfBdffPE4XEyf3ANuPuaWpBAppdIRBTGRz68dkY7kCyn7BGUQLiQ2wjdCN6oXn9uLX/zikoyt6a45fbpWcfwQTb4hGmKCWSi6U5IWEe2BIrHtq6JFEL5P0gHrD3PZkWrlqv6fgYzrGDNAutAWNjsGkn60Ea4MsIVr5Kz7Rsjah2/1vlOg9U/tyddfdfiuQZW0jjvuuDpvyjE/OZwCGuGqDMoiLQMygyXLBBt5aw0rfa31r5b3CZe4oCx9e8BNRHuBcwlSjESKST/RrM/DH/7w2mFKj2pvPcnoUUjOSE/NN/3pIYccUvpN/9YnMfmTgIcffnjpXelNhd1rr726iy66qHaNZs99jHxJ8pTr+OOP7573vOeVlKU31ezT5dq/LxxpmrCxcz3gxmNuR/d96RjTKrqkGfWPdaONuHXqnm0eJBu0ZxqPzs3fi2cGyny/2SU/37WelFqKO+0BKZhz+Eloq59IXHEgeUubpLTI+q//+q9L66As1hmQxtI0A0bqNrJWPBAvzzDgxmOuVVCp2H5lIwnyIJFznuw0dU6pphtZbcoTLl0FJ0Qfe+yxdYSOMBavWPGPmJp6Kiub/pDK9Cv9qt0BDj9zRpRFKn4EgfjQpGqlLS1HANlXRdVlwTXVFLUW0upSBAg+kPRmoFXk3KLfRGpG3Wt6QZN8zDHH1Ej961//ejWxjtix6KSRoZp/gyTL8xz4kDjiG6F/+ctf7k444YSuSdfu/PPPr9ks3QDpNYlao3aLW5773OfWAhfxGGXQ9WDHKFuTrOM8d9ttt3LPIIrtfsBNw1R/Nra+0Sq67EikRrraCm2g5CAzWz/MUBnMcCMd2aRa65+Ott9++9pX7x+nwtrD5LAz26Fbn7IGTvJwirSm24Y8Ule3gcT0Ewl/49OVSJeC7RXa9OcHEyYZSNJGzpp4IKUzmOpLUvn07wcpuwYg6VIBadSXaOyvfvWrpe887LDDSsIZTG266aY1v0+iMnSjHnWDDTYoVZPBUyPOeIDFcLOYWlyDqfglDYaUJK1JYtLTwKkvKQ286HGFE56KzDx/JDg1Vsrdfx42M2BhLCmSTiLNLnIgmNPwkIcOVVcAEZEvpknM+olun4DWpXIXln3QQQfVjJJ9TogtDD9ETzx7pmgBQjIklK/y2JsVouo+mJnSFQhBEVp4trgDSdeOJU1SFYsYKvptb3tb9T+dytcGRd3KlSvH6ikGyULavh0Sum/dgiKXsO4jgS0NbAOsmvESRvj99tuvJgNCMuVAVPf6syYc2uCqlglKp3UVagJAmIRjQtaBpKvHkicpkFJAimnSkcPAyNpSkgzREGuSnKSia3uikOlZz3pW9/znP78kqi6EZXn826i/5uyR/4gjjqiw4h577LGVd18qume3vmxJZbpa4eVnv9a73/3uIjQIF8IOJF095loFtS5olVsDk/Ys9YOG6DDf/va31yyTVfWNIKWasnKpEaLCcxMXDHQMcOyxtxzP4IiKyqorA6cmAWuwZa+VJYPUTOC/pvSs4gRJm0qK2ssOg/ZhVN7SVDaqL6otetYmZcflFw+UK9eT6IebxEJpTIbP/ZrSmTcsqdH9JBYqOhL6AdnOO+88XmKHuNafmvr0owiE7VdS7D45kAhBm5QsvShNgtP+/GQC6RzlY2KBvhYZWzfh/yMbKA8iIrp1qH5LaeLAhMG+++5bOl5piCfdvg3suPXLF5uf64Rz3aRz2fS9PjTlsj08kxPCcVsyaAVedtCcGlVbWOJ4c8v2DFb0Ia1+0lR79FZR1ccUJk1/I0PZD3jAA8qvVfbYjdG/pFu1Mc/iElOr2223XW3+02xr+huZqhxpxpm4N4lai11e//rX19Su06kPPfTQ0tMqt3Ax4usO5Hoy/SDpM56zfZC1SktXR/dnxx13rAU1uiL9uJPpzCuWHUlTkYCU+oVG9FZAUc4baVMxIR7CIVuThKv0WxF2hx12qP6kwZi4Khth+Ykb8iKyffn6rJMkYsfwY/NPP/ajH/3o+FwBO12d12+XrPUJ/ENMQODJ9AN+3Nhf+cpXaiVXv6y0DU2KV9iUZylhWUpS0ieEoNO0ptRhEwgVgoaQjHsVisxG9+6F40ev6qAJgx/3qXykJg1POumkkqR0pvIMGaF/rywpF7dIyCuvvHKshTBbRr9LM7BixYru85///Dguu28CaUWl5aOkx1Vm5ctz0Sz01V6J109nnrHsSKoimD5RXdOlGvWTngiBcEhBH4qYkTohsDC5j1uuhW/9yGpOaQIspm59zfog/B2l36wigzIAonAPQdO800LQLNAy2EyIYMqJbM6iOu6447oPfOADY91sn1x5Rn9SIfF1PzyLZ1Nm95r/lCEknUyjbwf9+8SD/vUssCwl6UJAiKuvvroqDQHSvCOCJvchD3lINblIiKD9MDHc4i8OCYuskVppuv0pJZIreTs6SOWSuLoGCM1wCxmQ1fYYUtvkBAmtm+GjkD/y6ZpccMEF3Y9+9KMiewifJj5lVSZ9Z1CWfBDAFs/HFMKlJVC2+LuPv2vpAH/pzQq3CJJ6qakQlaBvilwIutNOO3W77rpr9VVtmyYdNb/+ZqLSVTbTJ0CIGhMCRUojlnOsVKpV+3vvvXcRSz83H4KwZqTs1bI+lbRLXxUhGL/6UZZ0PZjkSVKKT3ra3h2/lMH9tttuW4tvrHNl+yuLv7soE1LKSxm9F6R/9atfXVtzfDwhtjKxvTdGuVLGWWFJq6DWFa0SxioXj9sqsYy/6NnWzKaqoS/daqutauW9Xz5SQYkLjVjjBStJj2mVVWkm3UbWuqaSssbUWavUTdJn08dSb1nw4szURowqg12qlhU6tcU5rdJh6FbpZv1pxXZtP7NoBKqyyEcZlIl6SRrclckJLOAelDllFZYOmUqNrla56G+dJiiMXbBZbEMP7PSWRvJ6JjsXLKRpH/PM1Fi3CJKCykIiFerlu24SotaEOpzMPnwLqFVYVkpZAK3ykENYlcs/JFfx0ss1hMRNohUhQowmEUtXi4C2RdPZIhWSNulVR1cqh4N/N9tssyKsX1gikfWq8jCJYFLA9mzxkdWkAX2rY4jawHCcHz+6XDpZC70ZZw9Y3eVDEcazKKew0vevVx+M1V/3bB/RBne4Q6XnmSwU94FYEWY1WGt16nlngVsMSb1s8Lh9qQoITFpZWoeIJB2CMMhqSZ8zSq3sF6Y1d1W5yMgkPRWdD4BpfdSSQv1wrb85Ouuss+qACz+lcOAFQiIKkiKIWSqLrpHDcep+cuHkaQQn3S3uJqFJS5LOxIWF2QiMqNzagK6eRX5s5HzHO94xuvjii+u5WtNdZ12R1p5HuX0QFnr7KOww8OyILE8fGMIjvl+uWxrpGWeBWwRJF3rEPqFAGPc27dmkh5hW/Tv0DJGQyAyO6VazWNaX8jPF6VhI/qBJdM22ttUvzRG69fNqhoqNGAhLCiKLcMiPGAjpo7nmGmf1X/8B+RHapZdeWv+uUl6ET/mlE7v/THku4CeOZ8y74J9rH4Mw8mJzV2bkBfeIz186Pqajjjqq/GaBW4wkXQj9SoZIO8Rxosl73/ve6g6oLH1FJ/Fptk1xtgFINZ/Ck7wqldR0kjSDuCo1acMkgZK3+NYFrFy5sojbRvW1eBqZTbmSZCSnLocygmrrl71Pulzzn3QDpPRMbO55bujfp7yku6lb3RB9VS2A+1nhFkvS/mP3K1DluY/RvCGj481d27xn4PDoRz+6SKSvp09psYlm0uBLGER2FKU+nLQRApERzTUiJE9NsnxJYG7CAZIgiCY35EQe8X0A/WfoI2UPgQPx+m7CSCNpyoM/ya1rYcu4I9432WST6jIoixZCHGE9/yxwiyWpyoikYfqV6j6VlopFIiNtzbv+KQMGWaSr5l8likP6koT6na7TFYC87j5BXPdJmHIggTDyBuH4u084bsGa0mb33ZUbCX1U3Gyn0Y2Rp0GR53Htg+GffOTJzUcykHQRkMro2/0KBjaSqCS/3PGjM027pt6gQwX6cdp97nOfkkYGNKQnaXjdddeV1CRdM6ARljSmRZCerkbIaRDEyFMcgxddAkQxqDHadh2yLlR+NiNNAybLCqnckJO78orvY/zxj39c9/kwJz9U5JZmP91ZYCDpTUQqCmHZKti1wQ01ElWOUTgCIphmktF0krxZ+4rMugcbbLBB9T2RWhppVpGLeszxlwZz1E8kun8GvOUtbykSCRtpKx0Snb4XKfnTbVIvcTcAUl7EE4c9K7LdVAwkvYmI9AoicUmbIGFIUZLWjlJqH6ojhKR7ZCMlPyN/kgych4qgdKnSli4CUmu55o7QCM428NInRkxaBJB3v3pTHvEjGaH/HPOIgaQ3AV6Zio0kAkRS8UjGr0+IINIuJBE2BARuSc91/PpuIN2UIdWXNPrVmTIwq7sXL/fzioGkNxGpYNA/DZEAuaDvFoJBnxjC9omjOvizuU36s/n1q211fkknSLi4+WhI67jPK24RJA2hPGoq8uZWzEKvjVuImzxCTtf9vPvxE24hUrmPcR/32EjsYxA/7kmjf88k/fiL5zrh5hVLmqTr+oLziCpUE7sUKubmwPOF9J4z1yFynj3u8475L+F6gMqAVNgS/i7XCZ4zXQ1Nep+ouYaQdd6x6CRFmJtKmnV9ySosFbfcpSjkfablCFHZ/NLsL5X3MNPmfm1Z3diX1n/Ra0s7/gm/VCropsIEQn8KM1LU/VIj6cwkqZcSoqwOq/PvuyeduC10zaRZz7URuClNi0TM1tBJLif0n50xajfDZU2BWa0dd9xxlWcWZqlgaiT1EiaJMvnl5suOgf71mtAPnz4WiQG5lz5yUp4fcMABtSjEnLsZHJJmuQAZA+/Ds5k+dZCFFVV2BVgyaA1B3nnspYCpNfdJNkT10vSPrLDR3KT5gT5Z49ZH/BFOv0o6rs3SsKVpO0YfpilNS15wwQWjM888s2Z90syxzQCZqVnqyDvzHsxgkZx+oOa4dqTMezYzZdGyZYERGAu963nEVEnqJXghFl5YbW51ODeLK2xhyAJg4B4SJR471yGWBRgJA65JSCvrzUsbHDFWtu+zzz5VeYF0QFxbMZYDScGH6zl33XXX0XnnnVfvhPFuuXteU6akqQ+630ddEmgPM1U0YtTuQ8e+tK94vJNR1mz3Mbnn13fvG34xcZN2a+JqG26rgNrN2KRo98hHPrJ2bjbSjvNkNtxwwzpIYTmhfbz1ozTHU7aWpoxnzrXTWJyMoj76Zilg6qN7XznJ1l5ILQ4+5JBDapVQI9dYcvLTd7J70YiUO1h4oT8Z1YnVP9Zo6mORwtIQ14JkfU75gGbOCnfx3/jGN9a/nzT/0pA2CWp1kh/fLgeQjHkXlvN5H45Zd8/wM1jU3JOkcWOWBJB0mmgvpKQbQ9qRcK3pGUtFUs61PeEgnDiJJw5jn/g111xTZ4SefvrpdUaTeOI7QJf0ZMTrX5PiBx988Cr70Z060vqold9ygXflmdmkqv343q/nZju9xfuDvN+lgqmroFoeY+PLtc7R72Vy315qXevQ6z+1l1fu3KC95DIkrL6sJWkW7e63337lL5xlaySkeHFz3yqtFg1Tv1hgzD/pL2doRbyj/vMu5eeeOkm9mBjE8bJsXQjiB5prBnHjhnAMN36I7HqnnXaqLbjSC0FDbNfCGDhwkx+SChv/5Yj+c0Xb0Sdp//1A7ucdMyVpQCK6778kUg+4IR2wQ0DSFPHY7q1wt7VW/9KKc+RF4sQL2cF1P62QdTnBc/WN9xF38MF6fu93kqzzjqmTFPovz4tCNC/KfV4at6Dvnvs+Ev6FL3xhHYhgvw4gH2Imr5Az5I1USbrLCXnmmLzP/nsM+C8lzISkQV5OJFn/5XGLtAP25Mt0L07cSV/xuIWI7MlKiUSFEHW5Ic/M7hvwvBT93lffbalgpiRdF+QlTiIvtd90A/fJF76UKmBa8B7zHlxTy0UQxG2pYO5IGniJky+yf99/4bAQWaeFybLlvu92Y3Fz4q4JfaK6vrnlXAzMtSTNC43RZPmziC3Cefl9Yk6DpJNliAkW8mPWBQnrgwvSfVnIxG9dMPkuQlBI96efV7C69BOub2aFuZekXmTMGWecUWcj+S99/6X3+6/rm6gpx6TpV/CNMUHu82zxi1v8J00/7JowGQ8yqARu7ifDMQthXcNNA4tO0vQxPbQKCPkY16kUtmlVq5ko6Ln1m/s1IWmyk9fakHwjdVKhbH7gaBqn3Vn+Z8rRVC2/+AfyjZFGzGS4pG/a1xGNn/jEJyptR/aY4hU/qrpAHOC3OiRfI/48V9+dcZ2yu4/N/PSGZY199zXlt76xKBvxjjzyyDo0FvKwDgVzqke/OF4Ifzo/q5+sdnIUjUpzCgi/dXlZ5v8dqajyhTd/vdDcvbyZEFnYuLlWBiceO22PNEdSbsopjlmzPffcsw60zSwYTJYxz4WQCSNdx0r6IZn5d8TwASOlGSQfppVMzm+ienNQRDQa0C8vXHbZZWPVHHd6ZUdX0iu7l66TAa1r4OaUPO+Z7V46ytAXCFauOQAY3E8+19TQCjBzvOIVr/Amy9z2hrPmmyQqv/aial75qquu6i6//PLuiiuuqP9x+r/n7W53u1rVZDWP+Xzh1gXSah/AeL1AI+lqV0ElTXYj0XhO3N89/GhBXOVI+Vtlja+lz885/OLHSCPpQtyla57dGf7WM3gP0mNyLU3vKG63v/3t6x+qQdJK+rn+1Kc+tUq5GvnqrHx5eseMf0YpbyP72Mgjxn3qh/HrnibR63lmiUUnaSrZC/EyvQw2kxecFyasl+2vcv2KWRuaJK0fJPTz4jaJfnpJ30IUf35OWZn73//+3Wmnndadf/755ecHCymj8jZJVD9ISBp9ksYt7v6E5x9T0kUIP5SQ9rve9a7une98Zy2O2XzzzctfHuw3vOENFR/hmKTXT391JOX3k59c/6ueNgCtHz2cfPLJnR/+Kj+DuPJhW/rn5xO77bZbd84554x/PsHMCotOUsaLYYegqWwvynVemDD+DmI1TypnXYCQ9773vcf5sBF9IaSSQT4qT/4pqzWxpDtJpMLAv5uQQJmVk33IIYcUCZnJsoa0fi0eAkr7qKOOqjSlHSKQtKQ+ogiHyHvssUf5JdxCH8FCJNWiJDxba8S4fulLXzouB9vvf770pS9V/gkPwvfzmwUWfeDUXmCZV77ylbX28+yzz67z2G35sC7SDwwc190qZDybxAT969WhvdCy28utvHI/ibgnD302216gfUAV1+p359i3iqzySFNf1EorcA/6zlGVMX3k3kG7zi+Vr36nv37IR9oJw90BZI6GdFa9sE7sS7o35l2IOxmmka/+tvKqV72qnscqNav7nd5nkYrdDuLIS3xhUraZoRVg5piUpEwb1Iy/ThIiNjdSrw18SiKQpOlb8UucNYEEIUnlIw1mIUlKQjC5JjHzu0f/fPLvT/ESLmGV88ILLxw/i/Sf9KQnVVdB+YRLOVNmbn7MS6qTjuJpxief3XMyJJh+cSNR1wZEY7+kxQY2s7rmXrrCS8/9YYcdVv6ecffddy/J2U+TESfl6LvPCnMjSdvD1xfLkCbtJYy/XqucTjzxxJIqpExf0qxPJF1lcE3bYLT9ute9rmySnkYgeQsHwjailTube2v2x1K1j8RlG6GDcNLQapCYdhHwb+RYJbzRPX/ahbyf+C2Ehdy5iUuD4L/+ftFDUrfmvt6xd6/8wrGFjXTP+4mZFRadpNB/YC+lX/kMOGzW2Zz8p4VUDiMfH0Xrm9XfR6h+qJU0d32krLHFE98248mwQfLRTUB69wwdsLzaIKV2ueouhKjeQ5NkFYcKzX3/Xa0O4vZtHwSdrn9W2VXq3tabl7zkJVWWEBGSb54pZtaYC5J6CXkZkzZ4MXR3e+21V+npSKC1Vc5NgXySbq775WBPhsn9JZdcUtfCgzL2y78Q/M3DCcx9f1KUtHzOc55T+76cY4/weSd9+Agm3daGNkIfbb/99nVqdOBjlNak5O5fB9N472tFy3TmWKhP2gYQN/j+X7+qb9oXXyqT7NPp94/WBn2v9Elj1jS679vJgw36cu6Vg273rW99a6mJjPpbZVYfk3nBC14w/qlsDPTvPYM9W35eq0ziM64b+SodfeGHPexhXetylH44fcN+Wn3ETZ806UmLftmI/c53vvNYA8GdsZPU++8/KyMf98lvsbBkSNp/UXELcdaGG0PSpJmKko+BA5sq6LOf/Wy355571h+ZVXYqmmkSaUyMAw88cBwvJukGIYHBikHLHe94xyqb+H1b2q1fWPpZf3IWJ3GTbhC3SZKylc8gbZKobB+Cj8rGxZQb8g4WE3PR3K8N7SVWs9Ze2LjJjfv6RHsflU8jwA0u17v5f9OKFStGW265Zf3XiJrMiiwqo6OPPrp+lrv33nuv0hSmrH0kfe78NbFsA5NTTz21VEt+TJvnjQ3imDr2sy8ns6Rp5i7dft6rQ2sFRkcccUStJLNRT/4MXHHFFaNTTjll/OOHpAvr+z3faLSCzBzrKklXB1/3jcG6StJIEOmblSFZWv+w23TTTccSR9O4zz77lAI/YZmPfOQj5S9tzbQDK6QBeZ6YSEHx5MlkFoib6eBnPOMZ3cYbbzyWotJmpG2Gi9I/cWL6eS3U3J911lmVF+hmeCfSk75y67KIJ13lkI6yul5MLAlJGrSXNpZG7PUNUiXpk24GGX5F439J4B9IpJ2DFyy2MMgRvhFhLJHEVU7gPgl+KX/i9u/5+3VO6+vW/6H8IjFpg2sTAOeff37FE1+8tYFGwOEbCe8HuVRqUZlxbx9zTVaw++WRz2Jiarmv6cXlpSCCF9B/CfFLfHauUykQe3UQJ6SejJP0GU17wsWA/ybZ24+IiMH4hbbVV+Be0whJJ88hfSbpgmtI3sLTVYboyNIkVqXLdk8vSj978skn1/Zt6Wvm2Zbyibc6I0xM8s21NEDXgbqLH7CtFHPKjMPghE95km7/elaYGkmD/gOxVY6Dx1yruBgvJBXWd4e8xHWFeKmUXE+WI24+lKSfSuSOHCELm0rJP5KSjjj9CovyXn7uXXtW9mRZkARB9XHza3LhEALYyUNYulN6zbwPftaXCpf8hGUSRnoQ/7hDyqTMpKl+tjCgnJYM+i+q9bHc5ZP0U0bXs8LUSNp/CA+aF+UlmLPmz829B/fSEaaFHodjwH1e9togjLRVRP86Lzpp+pNy0ky6BhapBH79dHxArR87LhvyhODudQlSZsYzCpP0kwdCIr6TBq1zdXaAplu+KY940pA2InHzgQiT1sdsWMoCypn4rlu/su4TPmVwnQ/PvTCvfe1rqzsgP+VjWy/rVEICJWHZIM4sMTWSTsJDeskWXjiwDPLywAr061/y9e6uVRYkzLpC+KTBtsA5zRc35TjuuONqRifhQ55UUmZ1wL1KN6rXX0sYbtK98MILq0mWDiMPfdf999+/SGjxiYXeSQt8EJToFPUHHXRQ/YLx2muvLf/rP9bry8V4Dxa7hIgO19BXFi7E8UzCshlHYfIXVxxS0dGPwvP3bPzkpw/s2cw48ePGzxmnnkGdJaz4eY8zQ3uwqaI9VI0QmUaWbpttthmPlNkx1mBSgJ9yyindZZddVsry9iLGI27x2WuDMMnTtdGqIyD7ekGP3QjZbbvttt0ZZ5zRtY9mHD6GPlSclE8c93SVjXRV1qc//eldq+CuVW6NkhPOtbBsRr5G6/IwGaB8l1xyyTgef9fKQ2lvjafRt8mLSy+9tGtEKR2q9IU95phjxs/JQJ6Z/Z73vGc8uRDdrbgOLWvdi27lypXjJYHspHP88cePw7K9I8bilBe96EXdueee2733ve/tWlel8pwVpkbSPDhD3aNCrWpPpcSkYtn8rDxH2DZQKAKpDC9TOq6D/nUfCU+NYk2ntPp55jr5Wf2jXEiUtZOMCj/66KOrPE0iVVgm8ZRZOtRBbUBVs08777xzhe0/k7SbpCzSSTNEsuprs802G5eFcS0/cZDMO6B4T5k32mijbq+99qrVVcguLc+bNK2SIgQQuv+MSVuZkFa6iPea17xmrG5im6xYsWJFhfEcSUM8Hx01FtNaodW+/2lg6pIUYZCUBDLFZ5nZ1ltvXS+jdc5rZoak2GKLLWrazkyOl6KSLH+DVEIfa3pJwiLc/e53v0qLoeskUZk2YOnayLbsxz72sbX6vA1OarYFSBd5IgLpoVL7lS69TTbZpGv9tno2ZWEsrrakkL+K3mWXXWphc9ICZWOEpxs2pSr9xAkpYodc3g3pLq60kiddbtJrI/46IFiclDdllodnz3OTkPvuu+8qRJcuotomk3h9oorDbt2AijMrTP048vbwdd8euNygPXT1afgvBHH0p/j3i7e68H20Chv3JcV1317u+H51SFnlm7LF1nfVn7NKySjfgbQGMvzklXTlxc2gjB7VqinppUzSV5aky/ADf292XLvNfRB/aViIkr8ze4/Qf3/ckw4dahMMtbxRXP1MSFi2uCl3v/xs/gZ0+qGNtLXqSh+Yuk2aCSde0pw2pkpSLyMvtX+fSstD5qWBcHmREPd1hcFMa5pWSSNpxgDC5MORR8qgghEphEs6wvJDOnHjlzj5qJKOMEmX32Q+oKxNepYbJF6I3Y8rbWDzS3oMMuVDFCdlA7awyTfukHyTZsqlDN4h/34Y1/3y9NOaJqZGUg+Uh3CdF8AtWcY/92zh8sLcJ8y6vhBxIR+H+1wHSbdfxj76filbniFlhPiBsPIKwRI3cRLWfT9d1yE99MMrN7++zb9ftoTPc6ac/Y9VXCROutwSn91/Nki4vhu4lkfffxZYlH3308RCj6MibioWSm9dX1k/34XKsKZ0En51YfrpCRMT94XyC9bkJ418BBC7X451yWN9YtmRdBa4Ka9soQpdUzoLkaOPyfSEY9aFOGsL089zTeVYl7zWBwaSThlrI87a/CFVJNyawq+PvGBdw80KA0mXKRaq1nki3o3BQNJlAFXYJ+Dk/c1FP70+XWZF+oGkA+Yes9EhDBhwMzCQdMDcYyDpgLnHQNIBc4+BpAPmHgNJB8w9BpIOmHsMJB0w9xhIOmDuMZB0wNxjIOmAucdA0gFzjtHo/wFqK7C1/Be8VwAAAABJRU5ErkJggg==" parent="1" vertex="1">
                    <mxGeometry x="440" y="134.5" width="70" height="65" as="geometry"/>
                </mxCell>
                <mxCell id="19" value="" style="sketch=0;outlineConnect=0;fontColor=#232F3E;gradientColor=none;fillColor=#D45B07;strokeColor=none;dashed=0;verticalLabelPosition=bottom;verticalAlign=top;align=center;html=1;fontSize=12;fontStyle=0;aspect=fixed;pointerEvents=1;shape=mxgraph.aws4.lambda_function;" parent="1" vertex="1">
                    <mxGeometry x="490" y="102" width="38" height="38" as="geometry"/>
                </mxCell>
                <mxCell id="22" value="RDS MYSQL" style="outlineConnect=0;dashed=0;verticalLabelPosition=bottom;verticalAlign=top;align=center;html=1;shape=mxgraph.aws3.rds;fillColor=#2E73B8;gradientColor=none;" parent="1" vertex="1">
                    <mxGeometry x="610" y="125.5" width="72" height="81" as="geometry"/>
                </mxCell>
                <mxCell id="25" value="" style="rounded=1;whiteSpace=wrap;html=1;fillColor=none;dashed=1;strokeColor=#F0F0F0;strokeWidth=2;perimeterSpacing=1;" parent="1" vertex="1">
                    <mxGeometry x="427" y="299" width="285" height="160" as="geometry"/>
                </mxCell>
                <mxCell id="26" style="edgeStyle=none;html=1;entryX=0;entryY=0.5;entryDx=0;entryDy=0;entryPerimeter=0;" parent="1" source="27" edge="1">
                    <mxGeometry relative="1" as="geometry">
                        <mxPoint x="612" y="383" as="targetPoint"/>
                    </mxGeometry>
                </mxCell>
                <mxCell id="27" value="" style="shape=image;verticalLabelPosition=bottom;verticalAlign=top;imageAspect=0;image=data:image/png,iVBORw0KGgoAAAANSUhEUgAAAKkAAAC0CAYAAADvnQxqAAAAAXNSR0IArs4c6QAAAARnQU1BAACxjwv8YQUAAAAJcEhZcwAADsMAAA7DAcdvqGQAADpVSURBVHhe7d0J2HVVWT7wo6YZKmIDlpSKmahZOAs44AAqSGqKKTIYKKPwSSCBBqmQyKCEgqjMYmpoGqKiSZoYKoKhUuJnTuWQOSBYBg7V/q/fA/dpf+f/fgPwnfOe92Xf17Wutfea9173ftZazxr2rbqG0YABc4xb32APGDC3GEg6YO4xkHTA3GMg6YC5x0DSAXOPJUNSSohJRcSgmLhlYK5IGiL2Cfk///M/o//+7/+u61vd6lZlw//+7//ecDVguWNu9KR9YiIjEoaUffcg1323AcsTcyFJQ8IQNZIT+oS99a1vPZDyFoi5kKQhJ4OQP/dzPzf6z//8z9E3vvGN0U9/+tPRz//8z4/ucY97jG53u9uVXx8DaZc/5kKSIlrIhoRXXnnlaJdddhmdeeaZdX3BBReMdtttt9HXvva1cR91Dr6tATPCokvSZI98mnOS9PDDDx/967/+6+iNb3zjaIMNNigCP+95z6vr0047raQrMvfJPWD5Yi5IimikI+KxkfSaa64Z3fGOd6wwt73tbUcf+chHisQf+9jH6j7FHki6/DE3o3sSFAkV50Mf+lAR9Zvf/OboqquuKj/YZ599RieddNJY6g6S9JaBRe+TIiWDbMgHj3nMY0ZbbbXV6Hvf+954pH+b29xm9PSnP72uhUfSAbcMLHpNRxr2+6S3v/3tR8cee+zoxBNPrGtuiGnEnziRrvFjcj1geWFu+qTsFIX01O/87ne/O9p2221HX/ziF0c/+9nPqo/6vve9b/SgBz2oCB1pipx99ZT0BiwfzIUkDUEjHUO+r371q6Nvfetb1dT/0i/90ui//uu/Ro973ONGv/7rvz66293uVqS9053uNLrLXe4yOvjgg2vUP2D5YW46dsiKjICwl1xyyej5z3/+6D/+4z9Gd77znYuA/O9+97uPPvjBD47OOuus0R3ucIeKp6vwiU98YvTjH/+44g9YZmiEWFQ06Vl2I1rZTVp2p556avdrv/ZrXSNl16Rq2Y2Mdb3BBht0v/zLv9w1KVpurVtQ9oEHHtg1ko7TG7B8cJuXN9zA10VBK0NJw4zi/+RP/qTUT9dee201/5p+tjBsUtO1Zv66664bu3/pS1+qtH7xF3+xJC6jj5q4/JjcMwOWBhZ94IQ0iKgY3/nOd0Zbbrnl6F/+5V/KL8p9MMrX5CPXFltsMTrllFNG55133uijH/3o6JOf/OToJz/5SRHTrNTDHvaw0X3uc5/Rb/7mb47ud7/7lUorAyskl5eB2SQG4s4pkHQx0UhaRnPfSNgdeuih4+adnea+Eayuuf/Wb/1Wd9VVV1W87373u92FF17Ybb755tX0e6TEd98ka3eve92r0r366qsrn5/97GfjfGMGzC8WfeDUCFKSjRRjb7311mUz/EhHUrD1UUe///u/P3rVq141an3S0Vve8paKr3knba2USlcg6bk3vUpLcPzxx5fUHbD0sOgk1dSn36k5/tGPflTuyIl4FpYY5T/5yU8ebbrppjXaf9rTnjY644wzRu9617uKjL/yK78y+vznP78K2UPypAU0An/xF38x+uEPf1h++UBiBswnZtonlRUSIUdf4jGkHvc99thj9Na3vrXc9EOpnPRR9Tm5ITQIT8L+wR/8QamivvKVr4we8YhHlPKfsh8hDzrooAqXj0B8fVF6VeNFknnjjTeu9Ejj9FnZypZXI14fk/cDpoxWETNDI0r1O9n6heC+EaRr0q3bf//9x/3KRoTqg6YvGrfYG264YbfDDjt0F1xwQfeDH/ygaySu/ibTmvjut3/7tytsI3LZ+qlNMo+v2Q984AO7f/7nf678lYetbNRgub722mvH6rG4DZgtZipJWwWvIp2uuOKKWtD8uc99rkbo3/72tysMSWYalJ1m3ywTCfmQhzykJKaReyPq6NOf/vTo4osvHh1wwAElWaV/zjnn1Ch/v/32q/n+SFKQXiPbWBpKe8899xw985nPLI0AKStfSBhp5pqd6wGzwcxVULLTpJqP1zRTO6UImmJ+CGVw1EbxRZyHPvSho3//938fnX/++bUYWr+U/3Of+9zRJptsMnrFK14xevOb31zNNwK+8IUvHP3N3/xNkdNyP6RKE272aqONNipymlb9hV/4hVJt6QsLv+uuu44e/OAHj373d393vJ5VfH7KxmYGzA4z75MyKnn33XevEXqkK+IYqSMhf/pS/dB/+7d/K5NispFGPOGQjuIfaelOEVvaiCy9e9/73kU64d7xjncUsR/96EdXWldffXWRHFGlR8peeOGFFf9e97pXfUSWB973vvcdE1aegySdLaZK0iQdQkHc/viP/3h0+umnl4TbZpttRne9611Hn/nMZ0Yf//jHKwx3UtF1JCFJBv0ic0cyhHz4wx8+etKTnlQDLiT/jd/4jfHI/sMf/vBo++23L+W+1f0IS8oedthhJVWVUVqXXnrp6AlPeEIRXz7Ijaw77bRTkdtCF8gzKZN4KeeA9Y+pkTSVxka2kEXlAimGIP/0T/9UTa3VTlRDEEKLk74pMrhnS1PXYPPNNx896lGPGj3+8Y8vCWqaVLqIpLkOpNEGSDWiR77Xv/71taKKtNSPBWVlrGFVLvlEurJ9CHS49LRtUDYOrywpr/sB6x9Tb+5VcKSOrBDmAx/4wOjP//zPi6CaZUhlI0efADFIaXkeYpoWZWxz/sIXvlAEFNdAzEDJtOiLX/ziVQjtGjHZCCc8E+IrI2m7995711Zq+fPzgflIEP+lL31pkdoHII/Elf6AKaJV4lTRKnmsGmqSrvvTP/3TUgFFNdTIUComhjubWyNG15rtrpGhO/roo7vLL7+8a4OnSo+6iZrJdOiXv/zlum4kK3VRI31dy4tNxZX8xaVq4g4pkzBNutYU6ste9rLu7W9/e3fQQQfV9KtyKo+yWpl19tlnd3vssUfXPrBKQ1oxA6aDqZM0FWgZ3XHHHVe6SmRU6SFlCIoMluJZdtf6hl0bMBWJkLL1IYuARx11VNcGM91FF13UtW7CmHwhIHBLvnFPOG5I+bnPfa579atf3T372c/uWj+1u8td7tKde+65Y72tfJH/4osvro+k9Xfrw7FMsA22uhNOOKHCJo8B08NU+6SMZrMRpObNn/jEJ46bcU2o6Uyja5vu4HWve13ZmtM3velNpRNtBK7wluJZ1Gz3aJPGoz/8wz+s6dJGkgojXdfJM2gEqi6AOfzvf//7o8suu2z0zne+s3Sr7cOoQRYtgkEWnauBUuJLS9rKLywtA+0DXaqZMN2GhBkwPUyNpCGPCnb9e7/3e6W7RM5f/dVfHR1zzDE1WkZUfTo6UFOcwlLENylXU6Tu6UiNuO0edbKJwU2IgTwGXvq2+qYex6SAvqrTT0ypGpAhqnAIaDQvnn7rU57ylMrrs5/9bBE3q/3lCyGs58jHAAmTcsg3fgPWM5B0GtC8gqZQX/K+971vTXk2YlY/8uMf/3j3ghe8oPqoTTp1Tcp12223XTW7+oHbbLNN14hTaWh2hTn++OO7zTbbrPvMZz7TNdJ1TTp3Bx98cLlpihtJxl0ItvtGuu6hD31o5aV5f//731/5N/JWGU2BNindPeYxj6l8uKVbAHkO9ww/3Yc08XEfMD1MjaR9IKlBh4GJARBSNAlaA5MMdNIX/NjHPtY95znP6bbccsvu9NNP//8I8Z3vfKfm63fccccipu8MGRnkdG9eX9+RW+sSFBHFzaCpTzz56n/uvPPO4zWq/fzAPSNs+qFJJ9cDpoepdaZa2mVaBZbaCfTlLLczV69/SGepnwea30aq8t93331rLp7KSB+UO8W7LoEmuhFq9O53v3vcBOsupNkVVn/VKShve9vbaiaKuov+NOVhUj7dDzbVUhT40hImSNmETfjANb8BU0R7yVMBKRNJ0/qINYK+613v2n3rW9+qZlfWzJOf/OTua1/7WqmPhH3JS14ylo6kIY0AN90EmgHubcAyvmY22mijavZPOumkrhGyugbyjkQEaffBj4S3CormgSRduXJlhePHlsaAxcdUSQqaWE1kGziV3pM65zWveU31Ge92t7tVX7WNrLsVK1Z0J598ci2f03fVdDNttF3NevqY7Db6r76re2E23njj6r/mo0ieuV4IiLjffvt1f/Znf1YfjmV/+rhJYyDp/GBqzb0ms6VfTSVjZVKr9FIzOWcUzB7x05RzNx2pK9AIUnGlkalSbu6N/KWjibdcz5y6bsD973//cm/kq3CaZfeNyJVWkGvu9u9bM2AGzGosKi7uiTdgTtAqbapoFV5SzQDpiU98Ykk+EpUUJCHZJCcJqTj8ueU697kmhQ1wrrzyytpYp6mOtHQdI08gMZUhICHBCF834R/+4R+60047rcpkNklYYdLkD1h8TE2SRhqSSI1ctdTNsjeSk/KcO4nlXliGGwjPnaQ88sgja7XUUUcdVYtIDMIs67POlE6zkbHCi0+6ZhBFkvbTDJQJLGgR7u/+7u/Ga1pJUkiYybgDFgdTI6kKTiWrdOaRj3zkeJYmREjT6h5pNL/2HSGYfUtNclYX4EUvelEp9zXtiCm8ph1RKelBOl//+teL4NJlkq6wyVfaFPq6Eg7ntdnPwmoTAim3OMIOWHxMjaR9hKz3vOc9awExAsSNnX6k/uZf/uVflvR0jdCITYLaVGdbcmuea7WSeJHCremuFVXXXXddqafMMoWcwkViAzdxbEVpg6ZaKG1qdrvtthv94Ac/qHgp20DSOUGriKmiEaL6eYx+ntVGjSjVBzUqd60YjRhl7nSnO5X7gx/84O5pT3va2N0sFHf9WAdBSE/a0tSvbM1/d+aZZ45VWRalsPVX2ZA4+qsU+O75M29+85u7Jq0rvYRlBiw+ZipJSTOb6CjYKfb1AfUdoZWlbE234x0p+//2b/+24jL6omnWNc/cGuEqni6CBSK0A3FLn7SPpGVunz8J7p50ZZyHqishnvsB84GpLnruJ+26SaYihqZV82wWqE+IEC/ESXw7RQ26DKT0Vx0OgfD6lPqRBj7guMjf+Z3fqZX64konNrgOGX0o4F65rIyy54qtm5GypJswYPEwVXERcoBr0gsBNttss5ru7BMJ9EMNkKLzRBLGyN7Kp/3333/0rGc9q9LhbxsIP6eXGKUjveV9SQ8BpZ88Uh7xV65cWQSUjnv9UautrJbiBklnwOJipm2aSmdskgsQB1m4a/4tt3OkDjWTZXy2czgVjwRGHrZ1n3/1V39VG+RsqjOg4v7Upz61NvKRsJGQ0o10ZrjpalCJcY/EJo11MZQhZOY3YPEx9VpIhUOIQpJabAx+e2P/EEIgq3WjiEYqOqQMAfU3IxXpWO0MpTri55c5Zp2cC2Xvvd2iCI6MIVk+AoYbcupCCBNprS9Kuks/YfplH7B4mImoCDlB5dtAZ2U7kFzUTPyRRrOtudcE05Pa5iwOglkVZQrTtmNKewOmP/qjP6qF0FY9OYmkT06QrrjsEC8mzb1r3Qhpau7dJ+6AxceitGcGPw94wAOKPA4Wy7I7/VV+Tr4Dek/NPYmpP2oLipE5Xel73vOeGu1bTU/i6hpI05I7TT+E3LEjIfukFd69naj6xJp8fvEfsPiYKUlVPEKQYPqZGUUjD9t6zrPPPrtIFqJR1NvThJjOdnLCiG0kjC0iZqP42SoSUklPHn2SSS8SljqLn3tE9zEoF9jDBANB5wczJamKT/9Q3xNJNeuaf7rRPpFINX4IZaEz9RIy6jMaMJGuNAE28dm4J22qJf7payYvNkJzt8h6r732Gn8E+r72N5nF0vXoax0GzAdmStIQEPRJNdEGUUixYsWK8QIRZCLdENRpd372AObpHcljwcmBBx442nHHHSu8nzwgKunqlD7S2Ag/ZJOefMDpfQivi4GomnthfTCmSu1KzdqAgajzgZmSVMWDyicpH/jABxZxkY6e0pE5JCF/7mwkJCHBdhAn6LnXNxXPKJ/aCuEcm3PEEUeU3vTZz372KqooZHRN+W8FlC0mUepbG2CCgBtJSoKTvgPmAzMlaYCsjNPunGdvRZKBC+U8MoHmWphzzz23tjrTjVJVkXJUTBdddFFJTIOmnHhHBUWZLy1dA6N95Ec6hEdkS/ykjbikJzJaYGKhCTUW8iM3/5RhwOJipiRNpSMM4jgAjHRzyAO1E0kY6SoMWL1vxO3cUP1Y6iqb9UhYZHS0I42A0b70HUpGwmq6uTlgDOQrT0vydDOE9Rc9IFFJZH1VHwE1FCBwyjFg8TDzPmmIqr+JSObjNdcOjkAaBOxLMH5IiqCkLAJaV6ofSjIKRwJzsyCF4p+iXr+TNDQgkhfCudfNOPTQQ+veNKj4iGkSQH+XVKafTTdhwBygVdLM0Cr9hqvrN+i5t7uzEaZ7ylOeUgc+5Kz7JsHKNIlZWzvucY971EY9m+aa9KxNfP7PtMsuu4zPl2Kcu9+a7dpRyt92k0b6sZGvffiW+zkggputLa17UMv0WteiDqxofePyG7D4mClJIeRkkOAf//Efa6+RdaS2IjvVDjlb0zze37T77rvXSXYIa7dpk7pFWqeO2CqNnE3Kdk0qV5gmRbu///u/rx+R2bYcgsYoQ5OeZeeejaQnnnhi17oe9cEMmA/MnKSAECEpMjjeEdGcXOJIRUfjhKTcQ1bXtkCL49jH1qwXORH1mc98ZpELeT/5yU+ukkdM8o5f3/973/te94UvfKFr/djK/xvf+MbYf8DiYuaj+5ZnmVzTfZpJamSoefkm1UY77LBD3TONKOOwjBkhh+VaM2r2yXYUs1JG/O9///urL0pn2kg97gMHyRf4CZN0LVoxypee/i41Fn9mwOJiUVRQ/YpHEDpNAyhTlJTsTrozekckBozMEQ6JW9+0RuD2MpkUENbgh7v0rLASTvjk1SfkQsTj5oNRDpqG1l1YheADFg8zJ2mfNIA0Ru277bZb6S2dH4os1ErChCgkqnBG9PSZpkpJXCN605l0qCSgtaj0nEgaQiYvQPqQtQ/38uDvDyX+AD2QdD6waJI0Js2uGR9ToZpxO0b9SaT1QcekYiMeN6or06IWPj/jGc8oveepp55aTbU5eieTILx4JCwgYIg4SdrcS1sY5LcIOn9CmTQDZotFIWmAHJFW/uiBHJpZazutaqKzRArhIuVc64Min31PfoSrL+p/pJbq8TdrJF1TnHSeIRYpbEFJiMpArnOvf2uvlFmogZSLj0UlKSAeIIh98FYkkWiabkeI64siCjfEQzBEe8Mb3lDx+JOsCGvGClFJQemZlzcjJY743HQZQrzJ5lw407TiW5BiwbW8hF9dnAHTx6KTNJXPNmCx9M6OTf1CbqQfcrlGNAYZNenm/jXzpCXJag2ABdNG5iQy29I8fVjdA+FI6MzNS1f6KYMPxuKTww8/vMguLk1CkDgDZoxWQYsKCnRoEqpmgug/mwTs3ve+99WBD4rYiFE200haekz6UfeNWDUR8MpXvnJ8SFlr5sczVfvss08dRS7c3e9+964NtOosUvk20o31pIz7Ngir48ul8YQnPKEM94QdMHssuiTtN+NURxaAkJDm8s2n8yfh2FFD2etEAlI9kWwGXC972cvqB2BOdZbWCSecUNLVXnoDMSAZrRcVx4IV6UgvmgCQpiWB+r2W9ZHIVlwpg7AJN2CGKKouIkinvpRybUqTNH3Tm95UZ+2TpCQhKUqCOnu/DapKksaPHePM/Mc97nE1a8Uknvn+RzziEd15551X9y9/+csr30hVdiNsSdMttthinK71AcKR1JH8A2aHRZekjQRlWlnGgxLL8xzHoy/52te+tgZAwvAnQf1rSZ+1H5ekY0hCvxQ3MUA15Z5kFc7qJ2FoBMSh/LevSrr8gcR2rV9qm4r71vWoFf3iuAfXDKTcA6aE9qIXHaQUSRaJSlrpOzpjvzXX3ZFHHln9SxKxEahsx5Rb/eTvdPqoJKbrU045pRaqkHqf/vSna5UVqZi4pGMkZCNx981vfnMsQRnXymF9gF/xWMQi7zbarwUrKWvKHTNgelh0SRqQXgyQVnaT+kGZhcgkYxv8VJ8USEb9yVb+mmGiXyUh/Z5ceIuh3fttuLTsfXIP7vV7rU/Vf/Xjs7hLTzjpUz1Zb0p7QL0lDXrToBFzXF62uAOmBEydB/SlEmnG9v9P0tTqKBLPH0hIwHve8571MwjXpKKVT0bz/v1kJVMk4/e///36d6j+K0nqcUlFa1f9dYREFI4dzYC4iZ9rywk//OEPdw960IO6D37wgxVWnJgB08XckLSPVDybaskCZouX/YjMgIfK6bGPfWyRDkljENpaU8RCckR81KMeVfGROKTWNdhqq63KPx/FJDEhBL7uuuv/+Oxveo9//OPHBOce8B8wHdymjXBfXiJ1jtDKNW5CNc32H1kdZS+UjXWXX355qZP4MwFVlBkjC1RMa5q1os6yvO+LX/ziDaGuhz+e2FrSyFXhzPUbZMmXWyNzhcu1SQD/2KfWotJyToBp20bWVZr9Aesfc0nSAAHoTp35ZGco3aW/N9vz1JrgG0L9X38WoSxUMWJHOsv47CZFZDNUffLr30rHGtZzzjln9KlPfap+yLvhhhuWX5OmZQuPmDQN0m8SvDQOPhabAkPm2AOmgFZhc4dGhrLT7GpWzRzpVzoy3P1Tn/rUar4Zj5E+p3szVXSh+o7SEN5PxTTz/DX5mn924nLXp7XdpN/nTFnMQP3whz+s487NiukT0x7YCwXCMeIMWL+YS5ICcqnwEA1JbB2hNvrQhz5U/cOQC9lCVjaj77r11lt35557bqXx7Rt+HYmoVFL77rtv5896wiBsSEvBD/qjSCfvXCO7qVvlOuCAA+qvfBdffPE4XEyf3ANuPuaWpBAppdIRBTGRz68dkY7kCyn7BGUQLiQ2wjdCN6oXn9uLX/zikoyt6a45fbpWcfwQTb4hGmKCWSi6U5IWEe2BIrHtq6JFEL5P0gHrD3PZkWrlqv6fgYzrGDNAutAWNjsGkn60Ea4MsIVr5Kz7Rsjah2/1vlOg9U/tyddfdfiuQZW0jjvuuDpvyjE/OZwCGuGqDMoiLQMygyXLBBt5aw0rfa31r5b3CZe4oCx9e8BNRHuBcwlSjESKST/RrM/DH/7w2mFKj2pvPcnoUUjOSE/NN/3pIYccUvpN/9YnMfmTgIcffnjpXelNhd1rr726iy66qHaNZs99jHxJ8pTr+OOP7573vOeVlKU31ezT5dq/LxxpmrCxcz3gxmNuR/d96RjTKrqkGfWPdaONuHXqnm0eJBu0ZxqPzs3fi2cGyny/2SU/37WelFqKO+0BKZhz+Eloq59IXHEgeUubpLTI+q//+q9L66As1hmQxtI0A0bqNrJWPBAvzzDgxmOuVVCp2H5lIwnyIJFznuw0dU6pphtZbcoTLl0FJ0Qfe+yxdYSOMBavWPGPmJp6Kiub/pDK9Cv9qt0BDj9zRpRFKn4EgfjQpGqlLS1HANlXRdVlwTXVFLUW0upSBAg+kPRmoFXk3KLfRGpG3Wt6QZN8zDHH1Ej961//ejWxjtix6KSRoZp/gyTL8xz4kDjiG6F/+ctf7k444YSuSdfu/PPPr9ks3QDpNYlao3aLW5773OfWAhfxGGXQ9WDHKFuTrOM8d9ttt3LPIIrtfsBNw1R/Nra+0Sq67EikRrraCm2g5CAzWz/MUBnMcCMd2aRa65+Ott9++9pX7x+nwtrD5LAz26Fbn7IGTvJwirSm24Y8Ule3gcT0Ewl/49OVSJeC7RXa9OcHEyYZSNJGzpp4IKUzmOpLUvn07wcpuwYg6VIBadSXaOyvfvWrpe887LDDSsIZTG266aY1v0+iMnSjHnWDDTYoVZPBUyPOeIDFcLOYWlyDqfglDYaUJK1JYtLTwKkvKQ286HGFE56KzDx/JDg1Vsrdfx42M2BhLCmSTiLNLnIgmNPwkIcOVVcAEZEvpknM+olun4DWpXIXln3QQQfVjJJ9TogtDD9ETzx7pmgBQjIklK/y2JsVouo+mJnSFQhBEVp4trgDSdeOJU1SFYsYKvptb3tb9T+dytcGRd3KlSvH6ikGyULavh0Sum/dgiKXsO4jgS0NbAOsmvESRvj99tuvJgNCMuVAVPf6syYc2uCqlglKp3UVagJAmIRjQtaBpKvHkicpkFJAimnSkcPAyNpSkgzREGuSnKSia3uikOlZz3pW9/znP78kqi6EZXn826i/5uyR/4gjjqiw4h577LGVd18qume3vmxJZbpa4eVnv9a73/3uIjQIF8IOJF095loFtS5olVsDk/Ys9YOG6DDf/va31yyTVfWNIKWasnKpEaLCcxMXDHQMcOyxtxzP4IiKyqorA6cmAWuwZa+VJYPUTOC/pvSs4gRJm0qK2ssOg/ZhVN7SVDaqL6otetYmZcflFw+UK9eT6IebxEJpTIbP/ZrSmTcsqdH9JBYqOhL6AdnOO+88XmKHuNafmvr0owiE7VdS7D45kAhBm5QsvShNgtP+/GQC6RzlY2KBvhYZWzfh/yMbKA8iIrp1qH5LaeLAhMG+++5bOl5piCfdvg3suPXLF5uf64Rz3aRz2fS9PjTlsj08kxPCcVsyaAVedtCcGlVbWOJ4c8v2DFb0Ia1+0lR79FZR1ccUJk1/I0PZD3jAA8qvVfbYjdG/pFu1Mc/iElOr2223XW3+02xr+huZqhxpxpm4N4lai11e//rX19Su06kPPfTQ0tMqt3Ax4usO5Hoy/SDpM56zfZC1SktXR/dnxx13rAU1uiL9uJPpzCuWHUlTkYCU+oVG9FZAUc4baVMxIR7CIVuThKv0WxF2hx12qP6kwZi4Khth+Ykb8iKyffn6rJMkYsfwY/NPP/ajH/3o+FwBO12d12+XrPUJ/ENMQODJ9AN+3Nhf+cpXaiVXv6y0DU2KV9iUZylhWUpS0ieEoNO0ptRhEwgVgoaQjHsVisxG9+6F40ev6qAJgx/3qXykJg1POumkkqR0pvIMGaF/rywpF7dIyCuvvHKshTBbRr9LM7BixYru85///Dguu28CaUWl5aOkx1Vm5ctz0Sz01V6J109nnrHsSKoimD5RXdOlGvWTngiBcEhBH4qYkTohsDC5j1uuhW/9yGpOaQIspm59zfog/B2l36wigzIAonAPQdO800LQLNAy2EyIYMqJbM6iOu6447oPfOADY91sn1x5Rn9SIfF1PzyLZ1Nm95r/lCEknUyjbwf9+8SD/vUssCwl6UJAiKuvvroqDQHSvCOCJvchD3lINblIiKD9MDHc4i8OCYuskVppuv0pJZIreTs6SOWSuLoGCM1wCxmQ1fYYUtvkBAmtm+GjkD/y6ZpccMEF3Y9+9KMiewifJj5lVSZ9Z1CWfBDAFs/HFMKlJVC2+LuPv2vpAH/pzQq3CJJ6qakQlaBvilwIutNOO3W77rpr9VVtmyYdNb/+ZqLSVTbTJ0CIGhMCRUojlnOsVKpV+3vvvXcRSz83H4KwZqTs1bI+lbRLXxUhGL/6UZZ0PZjkSVKKT3ra3h2/lMH9tttuW4tvrHNl+yuLv7soE1LKSxm9F6R/9atfXVtzfDwhtjKxvTdGuVLGWWFJq6DWFa0SxioXj9sqsYy/6NnWzKaqoS/daqutauW9Xz5SQYkLjVjjBStJj2mVVWkm3UbWuqaSssbUWavUTdJn08dSb1nw4szURowqg12qlhU6tcU5rdJh6FbpZv1pxXZtP7NoBKqyyEcZlIl6SRrclckJLOAelDllFZYOmUqNrla56G+dJiiMXbBZbEMP7PSWRvJ6JjsXLKRpH/PM1Fi3CJKCykIiFerlu24SotaEOpzMPnwLqFVYVkpZAK3ykENYlcs/JFfx0ss1hMRNohUhQowmEUtXi4C2RdPZIhWSNulVR1cqh4N/N9tssyKsX1gikfWq8jCJYFLA9mzxkdWkAX2rY4jawHCcHz+6XDpZC70ZZw9Y3eVDEcazKKew0vevVx+M1V/3bB/RBne4Q6XnmSwU94FYEWY1WGt16nlngVsMSb1s8Lh9qQoITFpZWoeIJB2CMMhqSZ8zSq3sF6Y1d1W5yMgkPRWdD4BpfdSSQv1wrb85Ouuss+qACz+lcOAFQiIKkiKIWSqLrpHDcep+cuHkaQQn3S3uJqFJS5LOxIWF2QiMqNzagK6eRX5s5HzHO94xuvjii+u5WtNdZ12R1p5HuX0QFnr7KOww8OyILE8fGMIjvl+uWxrpGWeBWwRJF3rEPqFAGPc27dmkh5hW/Tv0DJGQyAyO6VazWNaX8jPF6VhI/qBJdM22ttUvzRG69fNqhoqNGAhLCiKLcMiPGAjpo7nmGmf1X/8B+RHapZdeWv+uUl6ET/mlE7v/THku4CeOZ8y74J9rH4Mw8mJzV2bkBfeIz186Pqajjjqq/GaBW4wkXQj9SoZIO8Rxosl73/ve6g6oLH1FJ/Fptk1xtgFINZ/Ck7wqldR0kjSDuCo1acMkgZK3+NYFrFy5sojbRvW1eBqZTbmSZCSnLocygmrrl71Pulzzn3QDpPRMbO55bujfp7yku6lb3RB9VS2A+1nhFkvS/mP3K1DluY/RvCGj481d27xn4PDoRz+6SKSvp09psYlm0uBLGER2FKU+nLQRApERzTUiJE9NsnxJYG7CAZIgiCY35EQe8X0A/WfoI2UPgQPx+m7CSCNpyoM/ya1rYcu4I9432WST6jIoixZCHGE9/yxwiyWpyoikYfqV6j6VlopFIiNtzbv+KQMGWaSr5l8likP6koT6na7TFYC87j5BXPdJmHIggTDyBuH4u084bsGa0mb33ZUbCX1U3Gyn0Y2Rp0GR53Htg+GffOTJzUcykHQRkMro2/0KBjaSqCS/3PGjM027pt6gQwX6cdp97nOfkkYGNKQnaXjdddeV1CRdM6ARljSmRZCerkbIaRDEyFMcgxddAkQxqDHadh2yLlR+NiNNAybLCqnckJO78orvY/zxj39c9/kwJz9U5JZmP91ZYCDpTUQqCmHZKti1wQ01ElWOUTgCIphmktF0krxZ+4rMugcbbLBB9T2RWhppVpGLeszxlwZz1E8kun8GvOUtbykSCRtpKx0Snb4XKfnTbVIvcTcAUl7EE4c9K7LdVAwkvYmI9AoicUmbIGFIUZLWjlJqH6ojhKR7ZCMlPyN/kgych4qgdKnSli4CUmu55o7QCM428NInRkxaBJB3v3pTHvEjGaH/HPOIgaQ3AV6Zio0kAkRS8UjGr0+IINIuJBE2BARuSc91/PpuIN2UIdWXNPrVmTIwq7sXL/fzioGkNxGpYNA/DZEAuaDvFoJBnxjC9omjOvizuU36s/n1q211fkknSLi4+WhI67jPK24RJA2hPGoq8uZWzEKvjVuImzxCTtf9vPvxE24hUrmPcR/32EjsYxA/7kmjf88k/fiL5zrh5hVLmqTr+oLziCpUE7sUKubmwPOF9J4z1yFynj3u8475L+F6gMqAVNgS/i7XCZ4zXQ1Nep+ouYaQdd6x6CRFmJtKmnV9ySosFbfcpSjkfablCFHZ/NLsL5X3MNPmfm1Z3diX1n/Ra0s7/gm/VCropsIEQn8KM1LU/VIj6cwkqZcSoqwOq/PvuyeduC10zaRZz7URuClNi0TM1tBJLif0n50xajfDZU2BWa0dd9xxlWcWZqlgaiT1EiaJMvnl5suOgf71mtAPnz4WiQG5lz5yUp4fcMABtSjEnLsZHJJmuQAZA+/Ds5k+dZCFFVV2BVgyaA1B3nnspYCpNfdJNkT10vSPrLDR3KT5gT5Z49ZH/BFOv0o6rs3SsKVpO0YfpilNS15wwQWjM888s2Z90syxzQCZqVnqyDvzHsxgkZx+oOa4dqTMezYzZdGyZYERGAu963nEVEnqJXghFl5YbW51ODeLK2xhyAJg4B4SJR471yGWBRgJA65JSCvrzUsbHDFWtu+zzz5VeYF0QFxbMZYDScGH6zl33XXX0XnnnVfvhPFuuXteU6akqQ+630ddEmgPM1U0YtTuQ8e+tK94vJNR1mz3Mbnn13fvG34xcZN2a+JqG26rgNrN2KRo98hHPrJ2bjbSjvNkNtxwwzpIYTmhfbz1ozTHU7aWpoxnzrXTWJyMoj76Zilg6qN7XznJ1l5ILQ4+5JBDapVQI9dYcvLTd7J70YiUO1h4oT8Z1YnVP9Zo6mORwtIQ14JkfU75gGbOCnfx3/jGN9a/nzT/0pA2CWp1kh/fLgeQjHkXlvN5H45Zd8/wM1jU3JOkcWOWBJB0mmgvpKQbQ9qRcK3pGUtFUs61PeEgnDiJJw5jn/g111xTZ4SefvrpdUaTeOI7QJf0ZMTrX5PiBx988Cr70Z060vqold9ygXflmdmkqv343q/nZju9xfuDvN+lgqmroFoeY+PLtc7R72Vy315qXevQ6z+1l1fu3KC95DIkrL6sJWkW7e63337lL5xlaySkeHFz3yqtFg1Tv1hgzD/pL2doRbyj/vMu5eeeOkm9mBjE8bJsXQjiB5prBnHjhnAMN36I7HqnnXaqLbjSC0FDbNfCGDhwkx+SChv/5Yj+c0Xb0Sdp//1A7ucdMyVpQCK6778kUg+4IR2wQ0DSFPHY7q1wt7VW/9KKc+RF4sQL2cF1P62QdTnBc/WN9xF38MF6fu93kqzzjqmTFPovz4tCNC/KfV4at6Dvnvs+Ev6FL3xhHYhgvw4gH2Imr5Az5I1USbrLCXnmmLzP/nsM+C8lzISkQV5OJFn/5XGLtAP25Mt0L07cSV/xuIWI7MlKiUSFEHW5Ic/M7hvwvBT93lffbalgpiRdF+QlTiIvtd90A/fJF76UKmBa8B7zHlxTy0UQxG2pYO5IGniJky+yf99/4bAQWaeFybLlvu92Y3Fz4q4JfaK6vrnlXAzMtSTNC43RZPmziC3Cefl9Yk6DpJNliAkW8mPWBQnrgwvSfVnIxG9dMPkuQlBI96efV7C69BOub2aFuZekXmTMGWecUWcj+S99/6X3+6/rm6gpx6TpV/CNMUHu82zxi1v8J00/7JowGQ8yqARu7ifDMQthXcNNA4tO0vQxPbQKCPkY16kUtmlVq5ko6Ln1m/s1IWmyk9fakHwjdVKhbH7gaBqn3Vn+Z8rRVC2/+AfyjZFGzGS4pG/a1xGNn/jEJyptR/aY4hU/qrpAHOC3OiRfI/48V9+dcZ2yu4/N/PSGZY199zXlt76xKBvxjjzyyDo0FvKwDgVzqke/OF4Ifzo/q5+sdnIUjUpzCgi/dXlZ5v8dqajyhTd/vdDcvbyZEFnYuLlWBiceO22PNEdSbsopjlmzPffcsw60zSwYTJYxz4WQCSNdx0r6IZn5d8TwASOlGSQfppVMzm+ienNQRDQa0C8vXHbZZWPVHHd6ZUdX0iu7l66TAa1r4OaUPO+Z7V46ytAXCFauOQAY3E8+19TQCjBzvOIVr/Amy9z2hrPmmyQqv/aial75qquu6i6//PLuiiuuqP9x+r/n7W53u1rVZDWP+Xzh1gXSah/AeL1AI+lqV0ElTXYj0XhO3N89/GhBXOVI+Vtlja+lz885/OLHSCPpQtyla57dGf7WM3gP0mNyLU3vKG63v/3t6x+qQdJK+rn+1Kc+tUq5GvnqrHx5eseMf0YpbyP72Mgjxn3qh/HrnibR63lmiUUnaSrZC/EyvQw2kxecFyasl+2vcv2KWRuaJK0fJPTz4jaJfnpJ30IUf35OWZn73//+3Wmnndadf/755ecHCymj8jZJVD9ISBp9ksYt7v6E5x9T0kUIP5SQ9rve9a7une98Zy2O2XzzzctfHuw3vOENFR/hmKTXT391JOX3k59c/6ueNgCtHz2cfPLJnR/+Kj+DuPJhW/rn5xO77bZbd84554x/PsHMCotOUsaLYYegqWwvynVemDD+DmI1TypnXYCQ9773vcf5sBF9IaSSQT4qT/4pqzWxpDtJpMLAv5uQQJmVk33IIYcUCZnJsoa0fi0eAkr7qKOOqjSlHSKQtKQ+ogiHyHvssUf5JdxCH8FCJNWiJDxba8S4fulLXzouB9vvf770pS9V/gkPwvfzmwUWfeDUXmCZV77ylbX28+yzz67z2G35sC7SDwwc190qZDybxAT969WhvdCy28utvHI/ibgnD302216gfUAV1+p359i3iqzySFNf1EorcA/6zlGVMX3k3kG7zi+Vr36nv37IR9oJw90BZI6GdFa9sE7sS7o35l2IOxmmka/+tvKqV72qnscqNav7nd5nkYrdDuLIS3xhUraZoRVg5piUpEwb1Iy/ThIiNjdSrw18SiKQpOlb8UucNYEEIUnlIw1mIUlKQjC5JjHzu0f/fPLvT/ESLmGV88ILLxw/i/Sf9KQnVVdB+YRLOVNmbn7MS6qTjuJpxief3XMyJJh+cSNR1wZEY7+kxQY2s7rmXrrCS8/9YYcdVv6ecffddy/J2U+TESfl6LvPCnMjSdvD1xfLkCbtJYy/XqucTjzxxJIqpExf0qxPJF1lcE3bYLT9ute9rmySnkYgeQsHwjailTube2v2x1K1j8RlG6GDcNLQapCYdhHwb+RYJbzRPX/ahbyf+C2Ehdy5iUuD4L/+ftFDUrfmvt6xd6/8wrGFjXTP+4mZFRadpNB/YC+lX/kMOGzW2Zz8p4VUDiMfH0Xrm9XfR6h+qJU0d32krLHFE98248mwQfLRTUB69wwdsLzaIKV2ueouhKjeQ5NkFYcKzX3/Xa0O4vZtHwSdrn9W2VXq3tabl7zkJVWWEBGSb54pZtaYC5J6CXkZkzZ4MXR3e+21V+npSKC1Vc5NgXySbq775WBPhsn9JZdcUtfCgzL2y78Q/M3DCcx9f1KUtHzOc55T+76cY4/weSd9+Agm3daGNkIfbb/99nVqdOBjlNak5O5fB9N472tFy3TmWKhP2gYQN/j+X7+qb9oXXyqT7NPp94/WBn2v9Elj1jS679vJgw36cu6Vg273rW99a6mJjPpbZVYfk3nBC14w/qlsDPTvPYM9W35eq0ziM64b+SodfeGHPexhXetylH44fcN+Wn3ETZ806UmLftmI/c53vvNYA8GdsZPU++8/KyMf98lvsbBkSNp/UXELcdaGG0PSpJmKko+BA5sq6LOf/Wy355571h+ZVXYqmmkSaUyMAw88cBwvJukGIYHBikHLHe94xyqb+H1b2q1fWPpZf3IWJ3GTbhC3SZKylc8gbZKobB+Cj8rGxZQb8g4WE3PR3K8N7SVWs9Ze2LjJjfv6RHsflU8jwA0u17v5f9OKFStGW265Zf3XiJrMiiwqo6OPPrp+lrv33nuv0hSmrH0kfe78NbFsA5NTTz21VEt+TJvnjQ3imDr2sy8ns6Rp5i7dft6rQ2sFRkcccUStJLNRT/4MXHHFFaNTTjll/OOHpAvr+z3faLSCzBzrKklXB1/3jcG6StJIEOmblSFZWv+w23TTTccSR9O4zz77lAI/YZmPfOQj5S9tzbQDK6QBeZ6YSEHx5MlkFoib6eBnPOMZ3cYbbzyWotJmpG2Gi9I/cWL6eS3U3J911lmVF+hmeCfSk75y67KIJ13lkI6yul5MLAlJGrSXNpZG7PUNUiXpk24GGX5F439J4B9IpJ2DFyy2MMgRvhFhLJHEVU7gPgl+KX/i9u/5+3VO6+vW/6H8IjFpg2sTAOeff37FE1+8tYFGwOEbCe8HuVRqUZlxbx9zTVaw++WRz2Jiarmv6cXlpSCCF9B/CfFLfHauUykQe3UQJ6SejJP0GU17wsWA/ybZ24+IiMH4hbbVV+Be0whJJ88hfSbpgmtI3sLTVYboyNIkVqXLdk8vSj978skn1/Zt6Wvm2Zbyibc6I0xM8s21NEDXgbqLH7CtFHPKjMPghE95km7/elaYGkmD/gOxVY6Dx1yruBgvJBXWd4e8xHWFeKmUXE+WI24+lKSfSuSOHCELm0rJP5KSjjj9CovyXn7uXXtW9mRZkARB9XHza3LhEALYyUNYulN6zbwPftaXCpf8hGUSRnoQ/7hDyqTMpKl+tjCgnJYM+i+q9bHc5ZP0U0bXs8LUSNp/CA+aF+UlmLPmz829B/fSEaaFHodjwH1e9togjLRVRP86Lzpp+pNy0ky6BhapBH79dHxArR87LhvyhODudQlSZsYzCpP0kwdCIr6TBq1zdXaAplu+KY940pA2InHzgQiT1sdsWMoCypn4rlu/su4TPmVwnQ/PvTCvfe1rqzsgP+VjWy/rVEICJWHZIM4sMTWSTsJDeskWXjiwDPLywAr061/y9e6uVRYkzLpC+KTBtsA5zRc35TjuuONqRifhQ55UUmZ1wL1KN6rXX0sYbtK98MILq0mWDiMPfdf999+/SGjxiYXeSQt8EJToFPUHHXRQ/YLx2muvLf/rP9bry8V4Dxa7hIgO19BXFi7E8UzCshlHYfIXVxxS0dGPwvP3bPzkpw/s2cw48ePGzxmnnkGdJaz4eY8zQ3uwqaI9VI0QmUaWbpttthmPlNkx1mBSgJ9yyindZZddVsry9iLGI27x2WuDMMnTtdGqIyD7ekGP3QjZbbvttt0ZZ5zRtY9mHD6GPlSclE8c93SVjXRV1qc//eldq+CuVW6NkhPOtbBsRr5G6/IwGaB8l1xyyTgef9fKQ2lvjafRt8mLSy+9tGtEKR2q9IU95phjxs/JQJ6Z/Z73vGc8uRDdrbgOLWvdi27lypXjJYHspHP88cePw7K9I8bilBe96EXdueee2733ve/tWlel8pwVpkbSPDhD3aNCrWpPpcSkYtn8rDxH2DZQKAKpDC9TOq6D/nUfCU+NYk2ntPp55jr5Wf2jXEiUtZOMCj/66KOrPE0iVVgm8ZRZOtRBbUBVs08777xzhe0/k7SbpCzSSTNEsuprs802G5eFcS0/cZDMO6B4T5k32mijbq+99qrVVcguLc+bNK2SIgQQuv+MSVuZkFa6iPea17xmrG5im6xYsWJFhfEcSUM8Hx01FtNaodW+/2lg6pIUYZCUBDLFZ5nZ1ltvXS+jdc5rZoak2GKLLWrazkyOl6KSLH+DVEIfa3pJwiLc/e53v0qLoeskUZk2YOnayLbsxz72sbX6vA1OarYFSBd5IgLpoVL7lS69TTbZpGv9tno2ZWEsrrakkL+K3mWXXWphc9ICZWOEpxs2pSr9xAkpYodc3g3pLq60kiddbtJrI/46IFiclDdllodnz3OTkPvuu+8qRJcuotomk3h9oorDbt2AijMrTP048vbwdd8euNygPXT1afgvBHH0p/j3i7e68H20Chv3JcV1317u+H51SFnlm7LF1nfVn7NKySjfgbQGMvzklXTlxc2gjB7VqinppUzSV5aky/ADf292XLvNfRB/aViIkr8ze4/Qf3/ckw4dahMMtbxRXP1MSFi2uCl3v/xs/gZ0+qGNtLXqSh+Yuk2aCSde0pw2pkpSLyMvtX+fSstD5qWBcHmREPd1hcFMa5pWSSNpxgDC5MORR8qgghEphEs6wvJDOnHjlzj5qJKOMEmX32Q+oKxNepYbJF6I3Y8rbWDzS3oMMuVDFCdlA7awyTfukHyTZsqlDN4h/34Y1/3y9NOaJqZGUg+Uh3CdF8AtWcY/92zh8sLcJ8y6vhBxIR+H+1wHSbdfxj76filbniFlhPiBsPIKwRI3cRLWfT9d1yE99MMrN7++zb9ftoTPc6ac/Y9VXCROutwSn91/Nki4vhu4lkfffxZYlH3308RCj6MibioWSm9dX1k/34XKsKZ0En51YfrpCRMT94XyC9bkJ418BBC7X451yWN9YtmRdBa4Ka9soQpdUzoLkaOPyfSEY9aFOGsL089zTeVYl7zWBwaSThlrI87a/CFVJNyawq+PvGBdw80KA0mXKRaq1nki3o3BQNJlAFXYJ+Dk/c1FP70+XWZF+oGkA+Yes9EhDBhwMzCQdMDcYyDpgLnHQNIBc4+BpAPmHgNJB8w9BpIOmHsMJB0w9xhIOmDuMZB0wNxjIOmAucdA0gFzjtHo/wFqK7C1/Be8VwAAAABJRU5ErkJggg==" parent="1" vertex="1">
                    <mxGeometry x="442" y="351.5" width="70" height="65" as="geometry"/>
                </mxCell>
                <mxCell id="30" value="" style="aspect=fixed;html=1;points=[];align=center;image;fontSize=12;image=img/lib/azure2/iot/Function_Apps.svg;dashed=1;fillColor=none;" parent="1" vertex="1">
                    <mxGeometry x="490" y="306.32" width="58" height="51.18" as="geometry"/>
                </mxCell>
                <mxCell id="31" value="Azure&lt;br&gt;MySql" style="aspect=fixed;html=1;points=[];align=center;image;fontSize=12;image=img/lib/azure2/databases/Azure_Database_MySQL_Server.svg;dashed=1;fillColor=none;" parent="1" vertex="1">
                    <mxGeometry x="622" y="352.5" width="48" height="64" as="geometry"/>
                </mxCell>
                <mxCell id="32" value="" style="shape=curlyBracket;whiteSpace=wrap;html=1;rounded=1;dashed=1;fillColor=none;" parent="1" vertex="1">
                    <mxGeometry x="330" y="160" width="90" height="230" as="geometry"/>
                </mxCell>
                <mxCell id="34" value="&lt;b&gt;&lt;font style=&quot;font-size: 14px&quot;&gt;AZURE&lt;/font&gt;&lt;/b&gt;" style="rounded=1;whiteSpace=wrap;html=1;dashed=1;strokeColor=none;fillColor=none;" parent="1" vertex="1">
                    <mxGeometry x="512" y="256" width="120" height="60" as="geometry"/>
                </mxCell>
                <mxCell id="35" value="&lt;b&gt;&lt;font style=&quot;font-size: 14px&quot;&gt;AWS&lt;/font&gt;&lt;/b&gt;" style="rounded=0;whiteSpace=wrap;html=1;dashed=1;strokeColor=none;fillColor=none;strokeWidth=0;" parent="1" vertex="1">
                    <mxGeometry x="507.5" y="42" width="120" height="60" as="geometry"/>
                </mxCell>
                <mxCell id="36" value="&lt;b&gt;&lt;font style=&quot;font-size: 14px&quot;&gt;On Premises&lt;/font&gt;&lt;/b&gt;" style="rounded=1;whiteSpace=wrap;html=1;dashed=1;strokeColor=none;fillColor=none;" parent="1" vertex="1">
                    <mxGeometry x="140" y="160" width="120" height="60" as="geometry"/>
                </mxCell>
            </root>
        </mxGraphModel>
    </diagram>
</mxfile>